<svg width="48" height="48" viewBox="0 0 48 48" fill="none" xmlns="http://www.w3.org/2000/svg">
<g clip-path="url(#clip0_1349_325)">
<path d="M35 22.54V29.1C35 31.81 33.41 34.25 30.98 35.25L23.59 38.31C23.21 38.46 22.79 38.46 22.41 38.31L15.02 35.25C12.59 34.25 11 31.81 11 29.1V12.72C11 11.81 11.72 11.07 12.6 11.07H19.27C19.61 11.07 19.95 10.95 20.23 10.74L22.04 9.33C22.61 8.89 23.39 8.89 23.96 9.33L25.77 10.74C26.05 10.95 26.39 11.07 26.73 11.07H32.4" stroke="#23233C" stroke-width="2" stroke-miterlimit="10" stroke-linecap="round"/>
<path d="M17 21.54L23 27.54L35 16.54" stroke="#23233C" stroke-width="2" stroke-linecap="round" stroke-linejoin="round"/>
<path d="M35 12.72C35 11.81 34.28 11.07 33.4 11.07H26.73C26.39 11.07 26.05 10.95 25.77 10.74L23.96 9.33C23.39 8.89 22.61 8.89 22.04 9.33L20.23 10.74C19.95 10.95 19.61 11.07 19.27 11.07H13.6" stroke="#23233C" stroke-width="2" stroke-miterlimit="10" stroke-linecap="round"/>
</g>
<defs>
<clipPath id="clip0_1349_325">
<rect width="26" height="31.42" fill="white" transform="translate(10 8)"/>
</clipPath>
</defs>
</svg>
