<svg width="48" height="48" viewBox="0 0 48 48" fill="none" xmlns="http://www.w3.org/2000/svg">
<g clip-path="url(#clip0_1349_323)">
<path d="M20.76 27.78C18.27 25.29 18.27 21.26 20.76 18.78C23.25 16.3 27.28 16.29 29.76 18.78" stroke="#23233C" stroke-width="2" stroke-linecap="round" stroke-linejoin="round"/>
<path d="M17.1301 15.1501L14.8101 12.8301" stroke="#23233C" stroke-width="2" stroke-linecap="round" stroke-linejoin="round"/>
<path d="M14.16 20.3L11 19.46" stroke="#23233C" stroke-width="2" stroke-linecap="round" stroke-linejoin="round"/>
<path d="M14.16 26.26L11.01 27.1" stroke="#23233C" stroke-width="2" stroke-linecap="round" stroke-linejoin="round"/>
<path d="M15.38 34.3299L36.3 13.3999" stroke="#23233C" stroke-width="2" stroke-linecap="round" stroke-linejoin="round"/>
<path d="M28.24 12.17L29.09 9" stroke="#23233C" stroke-width="2" stroke-linecap="round" stroke-linejoin="round"/>
<path d="M22.2899 12.17L21.4399 9" stroke="#23233C" stroke-width="2" stroke-linecap="round" stroke-linejoin="round"/>
<path d="M37.41 37.18C36.5 37.71 35.4301 38.01 34.2901 38.01C30.8401 38.01 28.05 35.22 28.05 31.77C28.05 28.32 30.8401 25.53 34.2901 25.53C35.4301 25.53 36.5 25.83 37.41 26.37C35.55 27.45 34.2901 29.46 34.2901 31.76C34.2901 34.06 35.54 36.09 37.41 37.16V37.18Z" stroke="#23233C" stroke-width="2" stroke-linecap="round" stroke-linejoin="round"/>
</g>
<defs>
<clipPath id="clip0_1349_323">
<rect width="28.41" height="31.01" fill="white" transform="translate(10 8)"/>
</clipPath>
</defs>
</svg>
