<svg width="1920" height="1080" viewBox="0 0 1920 1080" xmlns="http://www.w3.org/2000/svg"><rect width="1920" height="1080" fill="#df6688"/><path d="M 0,1080 C 0,1080 0,180 0,180 C 84.98461538461538,186.08717948717947 169.96923076923076,192.17435897435897 281,184 C 392.03076923076924,175.82564102564103 529.1076923076923,153.3897435897436 640,149 C 750.8923076923077,144.6102564102564 835.5999999999999,158.26666666666665 933,178 C 1030.4,197.73333333333335 1140.4923076923076,223.54358974358973 1241,224 C 1341.5076923076924,224.45641025641027 1432.4307692307693,199.55897435897435 1544,188 C 1655.5692307692307,176.44102564102565 1787.7846153846153,178.22051282051282 1920,180 C 1920,180 1920,1080 1920,1080 Z" fill="#3d1053" opacity="0.09999999999999999"/><path d="M 0,1080 C 0,1080 0,360 0,360 C 112.76153846153849,404.0487179487179 225.52307692307699,448.0974358974359 313,425 C 400.476923076923,401.9025641025641 462.6692307692307,311.6589743589744 585,312 C 707.3307692307693,312.3410256410256 889.8,403.26666666666665 999,403 C 1108.2,402.73333333333335 1144.1307692307691,311.274358974359 1244,298 C 1343.8692307692309,284.725641025641 1507.676923076923,349.63589743589745 1631,373 C 1754.323076923077,396.36410256410255 1837.1615384615384,378.18205128205125 1920,360 C 1920,360 1920,1080 1920,1080 Z" fill="#3d1053" opacity="0.19999999999999998"/><path d="M 0,1080 C 0,1080 0,540 0,540 C 71.11538461538461,514.5230769230769 142.23076923076923,489.04615384615386 265,507 C 387.7692307692308,524.9538461538461 562.1923076923077,586.3384615384615 674,587 C 785.8076923076923,587.6615384615385 835,527.5999999999999 938,504 C 1041,480.40000000000003 1197.8076923076922,493.2615384615385 1313,506 C 1428.1923076923078,518.7384615384615 1501.769230769231,531.3538461538461 1596,537 C 1690.230769230769,542.6461538461539 1805.1153846153845,541.323076923077 1920,540 C 1920,540 1920,1080 1920,1080 Z" fill="#3d1053" opacity="0.3"/><path d="M 0,1080 C 0,1080 0,720 0,720 C 138.38974358974357,724.4487179487179 276.77948717948715,728.8974358974358 373,741 C 469.22051282051285,753.1025641025642 523.2717948717949,772.8589743589744 603,777 C 682.7282051282051,781.1410256410256 788.1333333333332,769.6666666666666 913,762 C 1037.8666666666668,754.3333333333334 1182.1948717948721,750.4743589743589 1307,759 C 1431.8051282051279,767.5256410256411 1537.0871794871794,788.4358974358975 1636,784 C 1734.9128205128206,779.5641025641025 1827.4564102564104,749.7820512820513 1920,720 C 1920,720 1920,1080 1920,1080 Z" fill="#3d1053" opacity="0.39999999999999997"/><path d="M 0,1080 C 0,1080 0,900 0,900 C 94.05641025641029,859.2051282051282 188.11282051282058,818.4102564102565 290,834 C 391.8871794871794,849.5897435897435 501.60512820512815,921.5641025641027 613,948 C 724.3948717948718,974.4358974358973 837.4666666666667,955.3333333333333 958,959 C 1078.5333333333333,962.6666666666667 1206.5282051282052,989.1025641025642 1318,967 C 1429.4717948717948,944.8974358974358 1524.4205128205126,874.2564102564102 1622,855 C 1719.5794871794874,835.7435897435898 1819.7897435897437,867.8717948717949 1920,900 C 1920,900 1920,1080 1920,1080 Z" fill="#3d1053" opacity="0.49999999999999994"/></svg>