<svg width="119" height="36" viewBox="0 0 119 36" fill="none" xmlns="http://www.w3.org/2000/svg">
<path d="M18.455 11.4258L19.593 0.0890055C18.9955 0.0292395 18.3954 -0.000464509 17.7949 5.49071e-06C17.2165 5.49071e-06 16.6447 0.0275955 16.0794 0.0827755L16.6257 5.65596C17.0181 5.51445 17.4203 5.38896 17.8296 5.2875L17.8224 11.3928C18.036 11.392 18.2477 11.4044 18.455 11.4258Z" fill="white"/>
<path d="M12.5907 8.00999C12.8784 7.76257 13.1765 7.52821 13.4849 7.30689L15.3676 11.8672C15.5622 11.7877 15.7615 11.7183 15.9655 11.6589L12.6797 0.747588C11.5553 1.08553 10.4671 1.53421 9.43129 2.08704L12.5907 8.00999Z" fill="White"/>
<path d="M21.7293 4.91638C22.1902 4.94181 22.6494 4.99232 23.1049 5.06767L20.271 11.8886C20.4668 11.9705 20.6572 12.0621 20.8422 12.1618L26.2305 2.12356C25.1973 1.56629 24.1112 1.11312 22.9883 0.770759L21.7293 4.91638Z" fill="White"/>
<path d="M10.4305 10.396C10.2341 10.682 10.047 10.9733 9.86902 11.27L4.05101 6.49075C4.79795 5.58381 5.63241 4.75269 6.54229 4.00943L13.7492 12.8293C13.5849 12.9627 13.4276 13.1044 13.2776 13.2538L10.4305 10.396Z" fill="White"/>
<path d="M22.3397 13.2841L28.4033 7.23215C27.9969 6.94624 27.5742 6.68443 27.1372 6.44805L29.1026 4.05307C30.0083 4.80017 30.838 5.63488 31.5797 6.54507L22.7623 13.754C22.6288 13.5903 22.488 13.4336 22.3397 13.2841Z" fill="White"/>
<path d="M23.9341 15.9568L34.8415 12.67C34.5038 11.5463 34.0552 10.459 33.5024 9.42425L31.5992 10.4406C31.8966 10.8688 32.1678 11.3146 32.4116 11.7756L23.7197 15.3614C23.8012 15.5561 23.8728 15.7548 23.9341 15.9568Z" fill="White"/>
<path d="M28.3757 28.3909C28.7888 28.1008 29.1848 27.787 29.5617 27.4511L31.5476 29.0932C30.803 29.9995 29.9713 30.8306 29.0644 31.5745L21.8574 22.7555C22.0203 22.6211 22.1768 22.4796 22.3254 22.33L28.3757 28.3909Z" fill="White"/>
<path d="M33.8992 17.8178V17.8C33.8989 17.2776 33.8671 16.7557 33.804 16.2371L35.5052 16.0698C35.5604 16.6403 35.5897 17.2188 35.5897 17.8044C35.5897 18.4043 35.5601 18.9961 35.5008 19.58L24.169 18.4381C24.1894 18.2307 24.201 18.0198 24.201 17.8071L33.8992 17.8178Z" fill="White"/>
<path d="M10.4171 25.1869L13.2705 22.3389C13.121 22.1894 12.9787 22.0328 12.8434 21.869L4.02698 29.078C4.7717 29.9881 5.60405 30.8228 6.51203 31.57L11.0586 26.0333C10.8338 25.7574 10.62 25.4753 10.4171 25.1869Z" fill="White"/>
<path d="M8.09666 17.7893V17.8C8.09666 18.1195 8.10912 18.4363 8.13581 18.7496L0.088974 19.5381C0.029361 18.9667 0 18.3865 0 17.8C0 17.1989 0.029658 16.6056 0.088974 16.02L11.4207 17.1538C11.4003 17.363 11.3887 17.5748 11.3887 17.7893H8.09666Z" fill="White"/>
<path d="M8.98641 22.517C8.86778 22.2108 8.75923 21.8993 8.66076 21.5825L11.8772 20.2546C11.7962 20.0597 11.725 19.8594 11.6627 19.6556L0.755386 22.9415C1.09395 24.0677 1.54433 25.1571 2.09979 26.1936L8.98641 22.517Z" fill="White"/>
<path d="M23.0737 30.5377C23.539 30.463 23.9997 30.3623 24.4537 30.236L26.1931 33.496C25.159 34.0507 24.0724 34.5011 22.9491 34.8408L19.6624 23.9304C19.8653 23.869 20.0646 23.7969 20.2586 23.7168L23.0737 30.5377Z" fill="White"/>
<path d="M33.0433 22.4279C32.8555 22.9177 32.6377 23.3953 32.3911 23.8582L23.7143 20.2519C23.6349 20.4464 23.5458 20.6368 23.4474 20.8224L33.4837 26.2131C34.0384 25.1792 34.4894 24.0928 34.8299 22.9699L33.0433 22.4279Z" fill="White"/>
<path d="M19.0663 30.5581L19.5512 35.5109C18.9735 35.5703 18.388 35.5999 17.7949 35.5999C17.2017 35.5999 16.6162 35.5703 16.0385 35.5109L17.172 24.175C17.3794 24.1946 17.5858 24.2053 17.7949 24.2053H17.8091L17.802 30.3027C18.2188 30.4093 18.6408 30.4946 19.0663 30.5581Z" fill="White"/>
<path d="M13.4609 28.2761C13.7783 28.5028 14.1045 28.7155 14.4396 28.9143L12.6397 34.84C11.5151 34.5003 10.4272 34.0491 9.39214 33.4933L14.7768 23.4586C14.9628 23.5538 15.1541 23.6446 15.3507 23.7256L13.4609 28.2761Z" fill="White"/>
<path d="M8.66611 13.997C8.5712 14.3079 8.48727 14.6231 8.41431 14.9423L0.766968 12.6185C1.10812 11.4932 1.56119 10.4048 2.11938 9.36995L12.1548 14.758C12.0541 14.9447 11.9629 15.1362 11.8816 15.332L8.66611 13.997Z" fill="White"/>
<path d="M42.7166 23.8H40.7786V12.4H42.9446L46.788 21.2594L50.6314 12.4H52.7812V23.8H50.8594V16.0968L47.5209 23.8H46.0552L42.7166 16.0968V23.8ZM58.722 23.914C57.9077 23.914 57.1911 23.7348 56.5723 23.3765C55.9643 23.0183 55.4866 22.5188 55.1391 21.8783C54.8026 21.2377 54.6343 20.4994 54.6343 19.6634C54.6343 18.8708 54.8026 18.1651 55.1391 17.5463C55.4757 16.9274 55.9426 16.4388 56.5397 16.0805C57.1369 15.7223 57.8154 15.5431 58.5754 15.5431C59.3463 15.5431 60.0249 15.7114 60.6111 16.048C61.1974 16.3845 61.6534 16.8568 61.9791 17.4648C62.3157 18.062 62.484 18.7568 62.484 19.5494C62.484 19.6797 62.4786 19.8208 62.4677 19.9728C62.4569 20.114 62.4406 20.266 62.4189 20.4288H56.6211C56.6754 20.8088 56.7949 21.14 56.9794 21.4223C57.1749 21.6937 57.4191 21.9054 57.7123 22.0574C58.0054 22.2094 58.342 22.2854 58.722 22.2854C59.178 22.2854 59.5851 22.1931 59.9434 22.0085C60.3126 21.824 60.5677 21.5797 60.7089 21.2757L62.3211 21.8131C61.9954 22.4645 61.5123 22.9803 60.8717 23.3603C60.2311 23.7294 59.5146 23.914 58.722 23.914ZM60.4809 18.9305C60.47 18.594 60.3777 18.29 60.204 18.0185C60.0303 17.7471 59.8023 17.5354 59.52 17.3834C59.2377 17.2205 58.9229 17.1391 58.5754 17.1391C58.2714 17.1391 57.9837 17.2151 57.7123 17.3671C57.4409 17.5191 57.2074 17.7308 57.012 18.0023C56.8274 18.2628 56.708 18.5723 56.6537 18.9305H60.4809ZM70.1794 15.6571H71.8405V22.5785C71.8405 23.5014 71.6125 24.294 71.1565 24.9563C70.7005 25.6294 70.0437 26.1451 69.186 26.5034C68.3282 26.8725 67.2968 27.0571 66.0917 27.0571L65.8148 25.4774C67.1828 25.4448 68.2197 25.1843 68.9254 24.6957C69.642 24.2071 70.0002 23.5068 70.0002 22.5948V22.5785H70.212C69.9622 22.9477 69.5985 23.2625 69.1208 23.5231C68.654 23.7837 68.0948 23.914 67.4434 23.914C66.7268 23.914 66.0917 23.7403 65.538 23.3928C64.9842 23.0454 64.55 22.5568 64.2351 21.9271C63.9311 21.2974 63.7791 20.5645 63.7791 19.7285C63.7791 18.8925 63.9311 18.1597 64.2351 17.53C64.55 16.9003 64.9842 16.4117 65.538 16.0643C66.0917 15.7168 66.7268 15.5431 67.4434 15.5431C67.8451 15.5431 68.2088 15.5974 68.5345 15.706C68.8711 15.8037 69.1642 15.9394 69.414 16.1131C69.6745 16.276 69.8862 16.4605 70.0491 16.6668L70.1794 15.6571ZM65.7497 19.7285C65.7497 20.4777 65.9451 21.0857 66.336 21.5525C66.7268 22.0194 67.248 22.2528 67.8994 22.2528C68.2794 22.2528 68.6268 22.1551 68.9417 21.9597C69.2565 21.7534 69.5117 21.4603 69.7071 21.0803C69.9025 20.7003 70.0002 20.2497 70.0002 19.7285C70.0002 19.1857 69.9025 18.7297 69.7071 18.3605C69.5117 17.9805 69.2511 17.6928 68.9254 17.4974C68.6105 17.302 68.2685 17.2043 67.8994 17.2043C67.248 17.2043 66.7268 17.4377 66.336 17.9045C65.9451 18.3605 65.7497 18.9685 65.7497 19.7285ZM78.8529 23.8L78.6901 22.8065C78.4295 23.154 78.1201 23.42 77.7618 23.6045C77.4035 23.7891 76.9258 23.8814 76.3286 23.8814C75.7641 23.8814 75.2755 23.7891 74.8629 23.6045C74.4504 23.4091 74.1301 23.1431 73.9021 22.8065C73.6849 22.4591 73.5764 22.0574 73.5764 21.6014C73.5764 20.9174 73.8261 20.3474 74.3255 19.8914C74.8358 19.4245 75.5795 19.1368 76.5566 19.0283L78.6901 18.8003V18.1651C78.6901 17.9045 78.5761 17.6711 78.3481 17.4648C78.1201 17.2477 77.7564 17.1391 77.2569 17.1391C76.8226 17.1391 76.4426 17.2477 76.1169 17.4648C75.8021 17.6711 75.5904 17.986 75.4818 18.4094L73.8858 17.8231C74.0921 17.1065 74.4992 16.5474 75.1072 16.1457C75.7261 15.744 76.4752 15.5431 77.3546 15.5431C78.4186 15.5431 79.2166 15.8091 79.7486 16.3411C80.2806 16.8731 80.5466 17.5517 80.5466 18.3768V23.8H78.8529ZM78.6901 20.2171L76.7358 20.4614C76.3232 20.5157 76.0138 20.6351 75.8075 20.8197C75.6012 20.9934 75.4981 21.216 75.4981 21.4874C75.4981 21.7371 75.5958 21.9543 75.7912 22.1388C75.9975 22.3125 76.2744 22.3994 76.6218 22.3994C77.0669 22.3994 77.4415 22.318 77.7455 22.1551C78.0604 21.9923 78.2938 21.7588 78.4458 21.4548C78.6086 21.1508 78.6901 20.7763 78.6901 20.3311V20.2171ZM86.6638 18.1C86.6638 17.2423 86.8104 16.4605 87.1035 15.7548C87.4075 15.0383 87.8201 14.4248 88.3413 13.9145C88.8733 13.3934 89.4867 12.9917 90.1815 12.7094C90.8873 12.4271 91.6418 12.286 92.4453 12.286C93.5635 12.286 94.5733 12.552 95.4744 13.084C96.3864 13.616 97.0813 14.3814 97.559 15.3803L95.9793 15.9177C95.7295 15.44 95.4093 15.0545 95.0184 14.7614C94.6275 14.4683 94.215 14.2565 93.7807 14.1263C93.3464 13.996 92.9175 13.9308 92.4941 13.9308C91.7558 13.9308 91.0935 14.1045 90.5073 14.452C89.921 14.7885 89.4595 15.2717 89.123 15.9014C88.7973 16.5203 88.6344 17.2531 88.6344 18.1C88.6344 18.936 88.7973 19.6688 89.123 20.2985C89.4595 20.9174 89.921 21.4005 90.5073 21.748C91.0935 22.0954 91.7558 22.2691 92.4941 22.2691C92.9284 22.2691 93.3681 22.204 93.8133 22.0737C94.2693 21.9325 94.6981 21.6937 95.0998 21.3571C95.5124 21.0097 95.8544 20.5483 96.1258 19.9728L97.6893 20.4777C97.1898 21.6503 96.4787 22.5188 95.5558 23.0834C94.633 23.6371 93.5961 23.914 92.4453 23.914C91.6418 23.914 90.8873 23.7728 90.1815 23.4905C89.4867 23.2083 88.8733 22.8065 88.3413 22.2854C87.8201 21.7643 87.4075 21.1508 87.1035 20.4451C86.8104 19.7285 86.6638 18.9468 86.6638 18.1ZM99.8181 15.6571H101.658V23.8H99.8181V15.6571ZM100.746 14.4194C100.41 14.4194 100.128 14.3054 99.8995 14.0774C99.6715 13.8494 99.5575 13.578 99.5575 13.2631C99.5575 12.9265 99.6715 12.6443 99.8995 12.4163C100.128 12.1883 100.41 12.0743 100.746 12.0743C101.072 12.0743 101.349 12.1883 101.577 12.4163C101.805 12.6443 101.919 12.9265 101.919 13.2631C101.919 13.578 101.805 13.8494 101.577 14.0774C101.349 14.3054 101.072 14.4194 100.746 14.4194ZM104.611 15.6571V13.3771H106.484V15.6571H108.39V17.2694H106.484V20.8848C106.484 21.3734 106.576 21.7154 106.761 21.9108C106.946 22.0954 107.184 22.1985 107.478 22.2203C107.782 22.2311 108.086 22.2148 108.39 22.1714V23.7348C107.923 23.8325 107.461 23.8597 107.005 23.8163C106.56 23.7837 106.158 23.6643 105.8 23.458C105.442 23.2408 105.154 22.926 104.937 22.5134C104.72 22.1008 104.611 21.558 104.611 20.8848V17.2694H103.471V15.6571H104.611ZM115.544 15.6571H117.482L112.694 27.0571H110.87L112.336 23.572L109.16 15.6571H111.196L113.346 21.4223L115.544 15.6571Z" fill="White"/>
</svg>
