<svg width="2710" height="513" viewBox="0 0 2710 513" fill="none" xmlns="http://www.w3.org/2000/svg">
<path d="M325.227 131.829H186.78V380.622H325.227V131.829Z" fill="#FFFFFE"/>
<path d="M195.571 256.225C195.549 232.265 200.979 208.613 211.449 187.061C221.919 165.509 237.155 146.622 256.004 131.829C232.663 113.482 204.63 102.072 175.111 98.9037C145.591 95.7353 115.776 100.936 89.0726 113.912C62.3693 126.887 39.8554 147.114 24.1042 172.28C8.353 197.446 0 226.536 0 256.225C0 285.914 8.353 315.004 24.1042 340.17C39.8554 365.336 62.3693 385.563 89.0726 398.539C115.776 411.514 145.591 416.715 175.111 413.547C204.63 410.378 232.663 398.969 256.004 380.622C237.155 365.829 221.919 346.941 211.449 325.389C200.979 303.837 195.549 280.186 195.571 256.225Z" fill="white"/>
<path d="M496.904 354.271V349.178H498.958V348.14H493.728V349.178H495.782V354.271H496.904ZM507.059 354.271V348.13H505.456L503.612 352.354L501.767 348.13H500.163V354.271H501.295V349.639L503.025 353.633H504.198L505.928 349.629V354.271H507.059Z" fill="black"/>
<path d="M512 256.225C512.001 285.914 503.649 315.004 487.899 340.17C472.148 365.336 449.635 385.563 422.932 398.538C396.229 411.514 366.415 416.715 336.896 413.547C307.377 410.378 279.345 398.969 256.004 380.622C274.836 365.814 290.06 346.923 300.529 325.375C310.997 303.826 316.436 280.182 316.436 256.225C316.436 232.268 310.997 208.624 300.529 187.076C290.06 165.527 274.836 146.637 256.004 131.829C279.345 113.482 307.377 102.072 336.896 98.9036C366.415 95.7353 396.229 100.936 422.932 113.912C449.635 126.888 472.148 147.115 487.899 172.281C503.649 197.447 512.001 226.537 512 256.225V256.225Z" fill="#FFFFFE"/>
<path d="M1352.51 175.921L1318.3 335.84H1276.93L1311.14 175.921H1352.51ZM1526.57 279.182L1548.34 219.13L1560.87 279.182H1526.57ZM1572.74 335.84H1611L1577.58 175.921H1542.29C1534.34 175.921 1527.63 180.532 1524.66 187.643L1462.59 335.84H1506.04L1514.66 311.957H1567.73L1572.74 335.84ZM1464.74 283.632C1464.92 241.426 1406.4 239.088 1406.79 220.23C1406.92 214.5 1412.38 208.397 1424.33 206.836C1430.26 206.073 1446.6 205.454 1465.13 213.993L1472.38 180.068C1462.43 176.467 1449.62 173 1433.68 173C1392.78 173 1364.01 194.725 1363.78 225.859C1363.52 248.883 1384.33 261.72 1399.98 269.388C1416.12 277.226 1421.53 282.251 1421.45 289.254C1421.33 299.983 1408.58 304.734 1396.7 304.914C1375.89 305.238 1363.83 299.289 1354.21 294.807L1346.7 329.866C1356.39 334.297 1374.23 338.153 1392.7 338.351C1436.18 338.351 1464.61 316.881 1464.74 283.632ZM1293.39 175.921L1226.36 335.84H1182.63L1149.64 208.213C1147.64 200.365 1145.9 197.48 1139.81 194.164C1129.86 188.761 1113.44 183.708 1099 180.564L1099.98 175.921H1170.38C1179.34 175.921 1187.41 181.888 1189.46 192.218L1206.89 284.765L1249.93 175.921H1293.39Z" fill="white"/>
<path d="M2710 259.08C2710 222.671 2692.36 193.942 2658.66 193.942C2624.81 193.942 2604.33 222.671 2604.33 258.796C2604.33 301.604 2628.51 323.222 2663.21 323.222C2680.13 323.222 2692.93 319.382 2702.6 313.978V285.533C2692.93 290.369 2681.84 293.356 2667.76 293.356C2653.96 293.356 2641.73 288.52 2640.17 271.738H2709.72C2709.72 269.889 2710 262.493 2710 259.08ZM2639.74 245.569C2639.74 229.498 2649.56 222.813 2658.52 222.813C2667.19 222.813 2676.44 229.498 2676.44 245.569H2639.74ZM2549.43 193.942C2535.49 193.942 2526.53 200.484 2521.56 205.036L2519.71 196.218H2488.42V362.049L2523.97 354.511L2524.12 314.262C2529.24 317.96 2536.77 323.222 2549.29 323.222C2574.75 323.222 2597.93 302.742 2597.93 257.658C2597.79 216.413 2574.32 193.942 2549.43 193.942ZM2540.9 291.933C2532.51 291.933 2527.53 288.947 2524.12 285.249L2523.97 232.484C2527.67 228.36 2532.79 225.516 2540.9 225.516C2553.84 225.516 2562.8 240.022 2562.8 258.653C2562.8 277.711 2553.98 291.933 2540.9 291.933ZM2439.49 185.551L2475.19 177.871V149L2439.49 156.538V185.551ZM2439.49 196.36H2475.19V320.804H2439.49V196.36ZM2401.24 206.884L2398.96 196.36H2368.24V320.804H2403.8V236.467C2412.19 225.516 2426.41 227.507 2430.82 229.071V196.36C2426.27 194.653 2409.63 191.524 2401.24 206.884ZM2330.12 165.498L2295.42 172.893L2295.28 286.813C2295.28 307.862 2311.07 323.364 2332.12 323.364C2343.78 323.364 2352.31 321.231 2357 318.671V289.8C2352.45 291.649 2329.98 298.191 2329.98 277.142V226.653H2357V196.36H2329.98L2330.12 165.498ZM2233.98 232.484C2233.98 226.938 2238.53 224.804 2246.07 224.804C2256.88 224.804 2270.53 228.076 2281.34 233.907V200.484C2269.54 195.791 2257.88 193.942 2246.07 193.942C2217.2 193.942 2198 209.018 2198 234.191C2198 273.444 2252.04 267.187 2252.04 284.111C2252.04 290.653 2246.36 292.787 2238.39 292.787C2226.59 292.787 2211.51 287.951 2199.56 281.409V315.258C2212.79 320.947 2226.16 323.364 2238.39 323.364C2267.97 323.364 2288.31 308.716 2288.31 283.258C2288.17 240.876 2233.98 248.413 2233.98 232.484Z" fill="white"/>
</svg>
