<svg width="3809" height="513" viewBox="0 0 3809 513" fill="none" xmlns="http://www.w3.org/2000/svg">
<path d="M325.228 131.82H186.781V380.612H325.228V131.82Z" fill="#FF5F00"/>
<path d="M195.571 256.225C195.549 232.264 200.978 208.613 211.448 187.061C221.919 165.509 237.155 146.622 256.003 131.829C232.662 113.482 204.629 102.072 175.11 98.9037C145.591 95.7353 115.776 100.936 89.0725 113.912C62.3692 126.887 39.8553 147.114 24.1041 172.28C8.35298 197.446 0 226.536 0 256.225C0 285.914 8.35298 315.004 24.1041 340.17C39.8553 365.336 62.3692 385.562 89.0725 398.538C115.776 411.513 145.591 416.714 175.11 413.546C204.629 410.378 232.662 398.968 256.003 380.621C237.155 365.828 221.919 346.941 211.449 325.389C200.979 303.837 195.549 280.185 195.571 256.225Z" fill="#EB001B"/>
<path d="M512 256.225C512.001 285.913 503.649 315.003 487.899 340.169C472.149 365.335 449.636 385.562 422.933 398.538C396.23 411.513 366.415 416.714 336.896 413.546C307.378 410.378 279.346 398.968 256.005 380.621C274.837 365.813 290.061 346.922 300.529 325.374C310.998 303.825 316.437 280.181 316.437 256.225C316.437 232.268 310.998 208.624 300.529 187.076C290.061 165.527 274.837 146.637 256.005 131.828C279.346 113.482 307.378 102.072 336.896 98.9036C366.415 95.7353 396.23 100.936 422.933 113.912C449.636 126.888 472.149 147.114 487.899 172.28C503.649 197.447 512.001 226.536 512 256.225Z" fill="#F79E1B"/>
<path d="M496.905 354.265V349.171H498.959V348.134H493.729V349.171H495.783V354.265H496.905ZM507.06 354.265V348.124H505.457L503.613 352.348L501.768 348.124H500.164V354.265H501.296V349.632L503.026 353.626H504.199L505.929 349.622V354.265H507.06Z" fill="#F79E1B"/>
<path d="M1424.23 131.829H1285.78V380.622H1424.23V131.829Z" fill="#007AD0"/>
<path d="M1294.57 256.225C1294.55 232.265 1299.98 208.613 1310.45 187.061C1320.92 165.509 1336.16 146.622 1355 131.829C1331.66 113.482 1303.63 102.072 1274.11 98.9037C1244.59 95.7353 1214.78 100.936 1188.07 113.912C1161.37 126.887 1138.86 147.114 1123.1 172.28C1107.35 197.446 1099 226.536 1099 256.225C1099 285.914 1107.35 315.004 1123.1 340.17C1138.86 365.336 1161.37 385.563 1188.07 398.539C1214.78 411.514 1244.59 416.715 1274.11 413.547C1303.63 410.378 1331.66 398.969 1355 380.622C1336.16 365.829 1320.92 346.941 1310.45 325.389C1299.98 303.837 1294.55 280.186 1294.57 256.225Z" fill="#0066BA"/>
<path d="M1595.9 354.271V349.178H1597.96V348.14H1592.73V349.178H1594.78V354.271H1595.9ZM1606.06 354.271V348.13H1604.46L1602.61 352.354L1600.77 348.13H1599.16V354.271H1600.3V349.639L1602.02 353.633H1603.2L1604.93 349.629V354.271H1606.06Z" fill="#00A2E5"/>
<path d="M1611 256.225C1611 285.914 1602.65 315.004 1586.9 340.17C1571.15 365.336 1548.63 385.563 1521.93 398.538C1495.23 411.514 1465.41 416.715 1435.9 413.547C1406.38 410.378 1378.34 398.969 1355 380.622C1373.84 365.814 1389.06 346.923 1399.53 325.375C1410 303.826 1415.44 280.182 1415.44 256.225C1415.44 232.268 1410 208.624 1399.53 187.076C1389.06 165.527 1373.84 146.637 1355 131.829C1378.34 113.482 1406.38 102.072 1435.9 98.9036C1465.41 95.7353 1495.23 100.936 1521.93 113.912C1548.63 126.888 1571.15 147.115 1586.9 172.281C1602.65 197.447 1611 226.537 1611 256.225Z" fill="#00A2E5"/>
<path d="M2451.51 175.921L2417.3 335.84H2375.93L2410.14 175.921H2451.51ZM2625.57 279.182L2647.34 219.13L2659.87 279.182H2625.57ZM2671.74 335.84H2710L2676.58 175.921H2641.29C2633.34 175.921 2626.63 180.532 2623.66 187.643L2561.59 335.84H2605.04L2613.66 311.957H2666.73L2671.74 335.84ZM2563.74 283.632C2563.92 241.426 2505.4 239.088 2505.79 220.23C2505.92 214.5 2511.38 208.397 2523.33 206.836C2529.26 206.073 2545.6 205.454 2564.13 213.993L2571.38 180.068C2561.43 176.467 2548.62 173 2532.68 173C2491.78 173 2463.01 194.725 2462.78 225.859C2462.52 248.883 2483.33 261.72 2498.98 269.388C2515.12 277.226 2520.53 282.251 2520.45 289.254C2520.33 299.983 2507.58 304.734 2495.7 304.914C2474.89 305.238 2462.83 299.289 2453.21 294.807L2445.7 329.866C2455.39 334.297 2473.23 338.153 2491.7 338.351C2535.18 338.351 2563.61 316.881 2563.74 283.632ZM2392.39 175.921L2325.36 335.84H2281.63L2248.64 208.213C2246.64 200.365 2244.9 197.48 2238.81 194.164C2228.86 188.761 2212.44 183.708 2198 180.564L2198.98 175.921H2269.38C2278.34 175.921 2286.41 181.888 2288.46 192.218L2305.89 284.765L2348.93 175.921H2392.39Z" fill="#1434CB"/>
<path d="M3809 259.08C3809 222.671 3791.36 193.942 3757.66 193.942C3723.81 193.942 3703.33 222.671 3703.33 258.796C3703.33 301.604 3727.51 323.222 3762.21 323.222C3779.13 323.222 3791.93 319.382 3801.6 313.978V285.533C3791.93 290.369 3780.84 293.356 3766.76 293.356C3752.96 293.356 3740.73 288.52 3739.17 271.738H3808.72C3808.72 269.889 3809 262.493 3809 259.08ZM3738.74 245.569C3738.74 229.498 3748.56 222.813 3757.52 222.813C3766.19 222.813 3775.44 229.498 3775.44 245.569H3738.74ZM3648.43 193.942C3634.49 193.942 3625.53 200.484 3620.56 205.036L3618.71 196.218H3587.42V362.049L3622.97 354.511L3623.12 314.262C3628.24 317.96 3635.77 323.222 3648.29 323.222C3673.75 323.222 3696.93 302.742 3696.93 257.658C3696.79 216.413 3673.32 193.942 3648.43 193.942ZM3639.9 291.933C3631.51 291.933 3626.53 288.947 3623.12 285.249L3622.97 232.484C3626.67 228.36 3631.79 225.516 3639.9 225.516C3652.84 225.516 3661.8 240.022 3661.8 258.653C3661.8 277.711 3652.98 291.933 3639.9 291.933ZM3538.49 185.551L3574.19 177.871V149L3538.49 156.538V185.551ZM3538.49 196.36H3574.19V320.804H3538.49V196.36ZM3500.24 206.884L3497.96 196.36H3467.24V320.804H3502.8V236.467C3511.19 225.516 3525.41 227.507 3529.82 229.071V196.36C3525.27 194.653 3508.63 191.524 3500.24 206.884ZM3429.12 165.498L3394.42 172.893L3394.28 286.813C3394.28 307.862 3410.07 323.364 3431.12 323.364C3442.78 323.364 3451.31 321.231 3456 318.671V289.8C3451.45 291.649 3428.98 298.191 3428.98 277.142V226.653H3456V196.36H3428.98L3429.12 165.498ZM3332.98 232.484C3332.98 226.938 3337.53 224.804 3345.07 224.804C3355.88 224.804 3369.53 228.076 3380.34 233.907V200.484C3368.54 195.791 3356.88 193.942 3345.07 193.942C3316.2 193.942 3297 209.018 3297 234.191C3297 273.444 3351.04 267.187 3351.04 284.111C3351.04 290.653 3345.36 292.787 3337.39 292.787C3325.59 292.787 3310.51 287.951 3298.56 281.409V315.258C3311.79 320.947 3325.16 323.364 3337.39 323.364C3366.97 323.364 3387.31 308.716 3387.31 283.258C3387.17 240.876 3332.98 248.413 3332.98 232.484Z" fill="#635BFF"/>
</svg>
