<svg width="1206" height="1084" viewBox="0 0 1206 1084" fill="none" xmlns="http://www.w3.org/2000/svg">
<g filter="url(#filter0_f_3_486)">
<path d="M891.854 725.278C935.959 711.961 1016.25 675.573 1045.11 648.641C1078.39 620.451 1009.37 588.912 1001.18 584.159C992.989 579.407 590.538 379.794 520.343 348.901C450.148 318.009 227.87 383.181 174.047 413.063C130.175 437.42 161.178 454.649 167.028 459.401C172.877 464.154 508.121 651.017 628.622 708.049C719.878 751.24 805.28 751.418 891.854 725.278Z" fill="black" fill-opacity="0.2"/>
</g>
<path fill-rule="evenodd" clip-rule="evenodd" d="M573.6 515.695L618.122 495.046L618.131 495.064C618.404 494.932 618.68 494.803 618.959 494.678C645.479 482.775 683.313 509.742 703.463 554.909C723.613 600.077 718.448 646.342 691.928 658.245C691.61 658.388 691.291 658.525 690.97 658.656L647.932 678.645L624.172 626.558C617.864 618.225 612.157 608.621 607.424 598.014C603.058 588.226 599.881 578.388 597.851 568.859L573.6 515.695Z" fill="black"/>
<ellipse cx="52.6562" cy="89.4451" rx="52.6562" ry="89.4451" transform="matrix(-0.911941 0.409292 0.407585 0.913628 622.926 493.712)" fill="black"/>
<g filter="url(#filter1_i_3_486)">
<ellipse cx="39.494" cy="67.0869" rx="39.494" ry="67.0869" transform="matrix(-0.911941 0.409292 0.407585 0.913628 618.515 519.574)" fill="url(#paint0_linear_3_486)"/>
</g>
<g filter="url(#filter2_di_3_486)">
<path fill-rule="evenodd" clip-rule="evenodd" d="M610.367 548.632C616.416 551.986 622.409 557.194 627.787 563.857L616.275 583.857C614.425 581.689 612.408 579.96 610.367 578.77L610.367 548.632ZM610.367 616.537C613.267 617.953 616.164 618.249 618.65 617.133C618.916 617.014 619.174 616.88 619.422 616.732L636.178 645.841C635.049 646.673 633.838 647.384 632.545 647.964C625.899 650.947 618.116 650.017 610.367 646.01L610.367 616.537ZM609.123 645.34L609.123 615.861C606.872 614.514 604.655 612.513 602.665 609.995L591.379 629.602C596.834 636.495 602.947 641.882 609.123 645.34ZM609.123 578.113L609.123 547.968C601.425 544.028 593.7 543.129 587.098 546.092C585.255 546.92 583.577 548.013 582.068 549.342L599.06 578.863C599.646 578.346 600.298 577.922 601.014 577.6C603.451 576.507 606.282 576.769 609.123 578.113ZM579.891 610.461C582.896 617.197 586.533 623.282 590.554 628.541L601.85 608.917C600.49 607.037 599.256 604.908 598.217 602.58C597.943 601.965 597.688 601.349 597.452 600.733L578.017 605.957C578.597 607.458 579.222 608.961 579.891 610.461ZM617.117 584.888L628.619 564.906C632.827 570.302 636.63 576.598 639.752 583.595C640.35 584.936 640.913 586.279 641.44 587.621L621.773 592.907C621.668 592.656 621.559 592.405 621.447 592.154C620.233 589.433 618.754 586.985 617.117 584.888ZM577.573 604.786C573.905 594.904 572.164 585.121 572.243 576.394L595.248 589.717C595.265 592.769 595.848 596.138 597.025 599.558L577.573 604.786ZM622.239 594.072C623.707 597.925 624.418 601.75 624.416 605.168L647.387 618.471C647.588 609.402 645.797 599.142 641.89 588.79L622.239 594.072ZM647.34 619.882L624.373 606.582C624.123 610.669 622.786 614.051 620.442 616.009L637.167 645.065C643.375 639.876 646.84 630.812 647.34 619.882ZM572.272 574.972L595.283 588.297C595.473 584.812 596.448 581.83 598.158 579.79L581.134 550.215C575.628 555.681 572.61 564.507 572.272 574.972Z" fill="#4C4C4C"/>
</g>
<path fill-rule="evenodd" clip-rule="evenodd" d="M573.612 514.753L618.134 494.104L618.143 494.124C618.424 493.988 618.708 493.855 618.994 493.727C645.514 481.824 683.347 508.79 703.497 553.959C723.646 599.127 718.482 645.392 691.962 657.295C691.634 657.442 691.305 657.583 690.974 657.718L647.944 677.703L624.14 625.52C617.859 617.208 612.174 607.634 607.459 597.063C603.11 587.314 599.94 577.513 597.909 568.018L573.612 514.753Z" fill="black"/>
<path d="M562.805 617.448C582.94 662.58 620.761 689.518 647.281 677.616C673.802 665.713 678.979 619.477 658.844 574.344C638.71 529.212 599.751 499.844 573.23 511.747C546.71 523.649 542.671 572.315 562.805 617.448Z" fill="black"/>
<g filter="url(#filter3_i_3_486)">
<ellipse cx="37.0157" cy="64.6943" rx="37.0157" ry="64.6943" transform="matrix(-0.907858 0.419439 0.394517 0.918869 618.382 522.057)" fill="url(#paint1_linear_3_486)"/>
</g>
<g filter="url(#filter4_di_3_486)">
<path fill-rule="evenodd" clip-rule="evenodd" d="M585.46 608.584C595.841 632.669 615.218 647.14 628.922 641.103L619.158 618.798C612.55 621.406 603.413 614.604 598.323 603.274L585.46 608.584ZM584.055 605.118C575.444 582.442 578.158 560.055 590.53 553.406L600.291 575.702C594.646 579.024 593.297 589.225 596.944 599.797L584.055 605.118ZM621.708 589.574C617.18 580.247 609.912 574.276 603.885 574.622L593.998 552.036C607.267 548.523 624.722 562.166 634.62 584.244L621.708 589.574ZM623.189 593.009L636.075 587.69C644.686 609.403 642.893 631.091 632.157 639.2L622.265 616.605C626.338 612.063 626.819 602.591 623.189 593.009Z" fill="#474747"/>
</g>
<path fill-rule="evenodd" clip-rule="evenodd" d="M239.056 347.431L278.289 337.285L278.293 337.302C278.546 337.232 278.802 337.165 279.058 337.102C302.369 331.381 329.095 358.92 338.754 398.611C348.413 438.302 337.346 475.116 314.036 480.837C313.752 480.906 313.467 480.971 313.182 481.031L275.232 490.867L263.628 444.858C259.777 437.188 256.594 428.589 254.34 419.328C252.262 410.788 251.143 402.381 250.899 394.389L239.056 347.431Z" fill="black"/>
<ellipse cx="43.4874" cy="73.8594" rx="43.4874" ry="73.8594" transform="matrix(-0.970558 0.238188 0.236603 0.972266 282.346 336.908)" fill="black"/>
<g filter="url(#filter5_i_3_486)">
<ellipse cx="32.617" cy="55.3971" rx="32.617" ry="55.3971" transform="matrix(-0.970558 0.238188 0.236603 0.972266 274.944 357.254)" fill="url(#paint2_linear_3_486)"/>
</g>
<g filter="url(#filter6_di_3_486)">
<path fill-rule="evenodd" clip-rule="evenodd" d="M263.982 379.641C268.403 383.268 272.504 388.396 275.887 394.617L263.552 409.165C262.37 407.123 260.986 405.413 259.503 404.139L263.982 379.641ZM253.893 434.822C256.037 436.402 258.345 437.073 260.53 436.537C260.77 436.478 261.005 436.405 261.235 436.319L270.523 462.464C269.483 462.971 268.394 463.368 267.259 463.647C261.412 465.082 255.221 463.163 249.518 458.745L253.893 434.822ZM248.607 458.015L252.982 434.088C251.357 432.661 249.855 430.71 248.613 428.374L236.548 442.604C239.951 449.007 244.11 454.288 248.607 458.015ZM258.59 403.42L263.07 378.918C257.407 374.58 251.271 372.705 245.474 374.127C243.853 374.525 242.327 375.164 240.903 376.02L250.317 402.518C250.865 402.191 251.452 401.947 252.075 401.794C254.218 401.268 256.48 401.903 258.59 403.42ZM230.059 425.344C231.499 431.263 233.55 436.748 236.035 441.619L248.11 427.377C247.281 425.643 246.592 423.724 246.092 421.671C245.961 421.131 245.846 420.594 245.746 420.059L229.206 421.407C229.454 422.712 229.738 424.025 230.059 425.344ZM264.082 410.129L276.407 395.593C279.023 400.603 281.178 406.283 282.674 412.431C282.961 413.61 283.218 414.786 283.447 415.955L266.666 417.322C266.617 417.102 266.566 416.881 266.512 416.66C265.932 414.275 265.097 412.072 264.082 410.129ZM229.019 420.39C227.507 411.816 227.546 403.608 228.906 396.53L245.595 410.76C245.152 413.247 245.123 416.079 245.573 419.041L229.019 420.39ZM266.872 418.338C267.489 421.679 267.5 424.884 266.994 427.656L283.696 441.898C285.206 434.561 285.275 425.961 283.639 416.972L266.872 418.338ZM283.448 443.037L266.75 428.8C265.944 432.083 264.36 434.633 262.17 435.881L271.442 461.981C277.256 458.69 281.419 451.842 283.448 443.037ZM229.141 395.379L245.834 409.613C246.509 406.81 247.748 404.533 249.446 403.134L240.015 376.59C234.732 380.211 230.97 386.93 229.141 395.379Z" fill="#4C4C4C"/>
</g>
<path fill-rule="evenodd" clip-rule="evenodd" d="M238.946 348.454L278.179 338.309L278.184 338.329C278.423 338.263 278.664 338.2 278.907 338.141C302.217 332.42 328.944 359.958 338.602 399.65C348.261 439.341 337.194 476.154 313.884 481.875C313.572 481.952 313.259 482.022 312.945 482.087L275.122 491.89L263.568 446.077C259.675 438.362 256.46 429.7 254.189 420.366C252.093 411.754 250.973 403.277 250.742 395.223L238.946 348.454Z" fill="black"/>
<ellipse cx="43.9706" cy="74.6801" rx="43.9706" ry="74.6801" transform="matrix(-0.970558 0.238188 0.236603 0.972266 282.499 336.157)" fill="black"/>
<g filter="url(#filter7_i_3_486)">
<g filter="url(#filter8_i_3_486)">
<ellipse cx="30.5996" cy="53.4886" rx="30.5996" ry="53.4886" transform="matrix(-0.955903 0.291403 0.304367 0.953226 267.871 364.297)" fill="url(#paint3_linear_3_486)"/>
</g>
<g filter="url(#filter9_di_3_486)">
<path fill-rule="evenodd" clip-rule="evenodd" d="M232.185 430.035C237.956 450.891 252.227 465.315 264.233 462.477L258.775 443.079C253.037 444.165 246.339 437.409 243.454 427.611L232.185 430.035ZM231.404 426.942C226.947 407.429 231.792 389.784 242.767 386.183L248.227 405.588C243.213 407.489 240.927 415.493 242.695 424.513L231.404 426.942ZM264.36 419.853C261.703 411.66 256.379 405.787 251.35 405.213L245.823 385.567C257.203 384.645 270.039 398.179 275.638 417.427L264.36 419.853ZM265.204 422.932L276.461 420.511C281.002 439.243 276.974 456.435 267.161 461.406L261.635 441.767C265.538 438.715 267.057 431.172 265.204 422.932Z" fill="url(#paint4_linear_3_486)"/>
</g>
</g>
<g filter="url(#filter10_ii_3_486)">
<path fill-rule="evenodd" clip-rule="evenodd" d="M825.311 325.82C827.236 326.986 828.942 327.79 830.436 328.19C846.967 332.614 985.439 408.55 1015.63 439.066C1045.01 468.762 1043.38 486.512 1042.62 494.752C1042.51 495.942 1042.42 496.933 1042.45 497.734C1042.56 501.727 1042.53 509.762 1042.49 519.985C1042.47 526.006 1042.45 532.786 1042.45 539.946L1042.45 564.272C1042.39 566.089 1042.4 567.943 1042.41 569.836C1042.44 577.875 1042.48 586.615 1037.55 596.192C1031.47 607.997 1002.14 651.282 859.781 695.998C811.519 711.157 755.457 694.321 719.701 679.507C703.763 673.57 691.955 667.848 686.829 665.269C686.096 664.9 685.621 664.217 685.509 663.413C685.279 663.294 685.067 663.185 684.873 663.086C683.959 650.773 680.997 633.158 676.628 615.598C671.842 597.394 665.564 579.42 658.681 567.652C642.332 539.699 607.533 505.225 580.17 514.67C549.115 525.39 551.5 570.04 552.097 580.702C552.272 583.837 552.636 585.928 552.995 587.993V587.994C553.51 590.958 554.016 593.87 553.944 599.741C553.941 599.972 553.908 600.192 553.848 600.397C553.833 600.926 553.812 601.488 553.785 602.084L552.957 601.656C552.249 602.17 551.268 602.305 550.382 601.851L306.116 476.913C305.428 476.561 304.938 475.911 304.819 475.148C303.961 469.646 303.977 463.151 303.996 455.853V455.851C304.044 436.945 304.105 412.645 289.015 386.245C275.222 362.114 255.128 346.141 236.886 351.865C218.644 357.589 213.683 377.232 212.688 388.171C211.712 398.915 212.292 408.775 212.629 414.493V414.494C212.764 416.795 212.86 418.425 212.799 419.172C212.587 421.776 186.322 399.18 184.633 390.571C179.494 364.367 178.423 339.829 181.12 313.232C181.578 308.718 183.286 297.058 184.525 293.112C184.635 292.76 184.687 292.401 184.662 292.033C184.025 282.902 185.63 269.117 188.172 263.335C188.394 262.83 188.611 262.298 188.839 261.739L188.842 261.73C191.513 255.169 195.683 244.923 227.826 230.551C273.466 210.145 397.744 164.717 402.552 163.655C413.914 161.146 428.466 162.224 440.247 163.097C447.16 163.609 453.118 164.05 456.918 163.655C511.797 157.944 575.416 165.519 659.36 207.851C670.596 212.618 681.706 218.058 692.464 224.267C719.299 239.756 741.913 256.2 760.727 271.337C782.745 288.152 799.719 303.271 811.9 314.12C817.308 318.937 821.771 322.912 825.311 325.82Z" fill="url(#paint5_linear_3_486)"/>
</g>
<g filter="url(#filter11_ddi_3_486)">
<path d="M604.941 420.489C574.177 407.758 556.994 365.73 509.853 316.66C509.24 316.022 509.454 314.954 510.275 314.624L701.121 237.993C701.307 237.919 701.496 237.889 701.692 237.926C704.181 238.403 723.29 243.457 778.894 292.342C806.036 316.204 811.469 322.419 825.492 331.867C827.71 333.362 827.324 336.653 819.177 343.366C793.204 364.769 650.077 439.168 604.941 420.489Z" fill="url(#paint6_linear_3_486)"/>
</g>
<g filter="url(#filter12_di_3_486)">
<path d="M389.677 259.765C349.555 247.141 343.893 248.314 313.083 248.314C293.993 248.314 262.213 247.251 258.912 255.83C255.61 264.409 292.246 291.354 307.41 299.743C314.821 303.844 570.503 431.949 562.373 416.809C552.356 398.156 506.253 344.871 490.508 323.113C464.256 286.837 429.798 272.39 389.677 259.765Z" fill="url(#paint7_linear_3_486)"/>
</g>
<g filter="url(#filter13_di_3_486)">
<path d="M298.751 234.508L467.076 165.965C467.076 165.965 463.303 167.295 442.649 166.991C435.441 166.885 260.745 238.682 259.469 239.804L298.751 234.508Z" fill="url(#paint8_linear_3_486)"/>
</g>
<g filter="url(#filter14_f_3_486)">
<path d="M682.292 512.908C617.648 482.865 581.325 445.151 542.381 410.679C658.354 445.059 901.093 520.292 897.29 525.188C892.536 531.308 875.102 538.569 817.172 542.474C760.139 546.318 689.694 516.348 682.292 512.908Z" fill="url(#paint9_linear_3_486)" fill-opacity="0.21"/>
</g>
<g filter="url(#filter15_di_3_486)">
<path d="M452.306 422.202C452.306 421.724 452.034 421.288 451.604 421.08L427.432 409.326C426.606 408.924 425.646 409.525 425.646 410.445L425.646 416.372C425.646 416.85 425.92 417.287 426.35 417.495L450.522 429.202C451.348 429.602 452.306 429 452.306 428.082L452.306 422.202Z" fill="#323232"/>
</g>
<g filter="url(#filter16_di_3_486)">
<path d="M328.597 367.631C328.597 367.153 328.324 366.717 327.895 366.508L303.723 354.754C302.897 354.353 301.937 354.954 301.937 355.873L301.937 361.8C301.937 362.279 302.211 362.716 302.641 362.924L326.813 374.63C327.639 375.03 328.597 374.429 328.597 373.51L328.597 367.631Z" fill="#323232"/>
</g>
<path d="M730.845 392.23L583.507 284.911C566.632 289.479 528.231 306.668 520.914 309.416C511.434 312.976 509.858 314.961 509.858 314.961C509.858 317.822 511.319 319.074 515.921 323.546C522.519 329.957 525.312 332.908 541.658 353.774C565.197 383.824 583.107 411.783 600.281 418.492C613.944 423.829 635.253 428.497 665.577 418.492C692.683 409.549 709.368 399.443 730.845 392.23Z" fill="#C4C4C4" fill-opacity="0.2"/>
<g opacity="0.17" filter="url(#filter17_f_3_486)">
<path d="M992.129 477.258C951.984 509.017 862.678 554.416 822.803 561.339" stroke="url(#paint10_linear_3_486)" stroke-width="41.0856" stroke-linecap="round" stroke-linejoin="round"/>
</g>
<g filter="url(#filter18_dii_3_486)">
<path d="M1022.75 488.851C1030.54 478.33 1028.32 469.929 1027.18 456.655C1027.17 456.462 1027.12 456.249 1027.06 456.065C1023.41 445.133 1038.26 466.872 1039.81 481.881C1040.31 486.813 1040 489.31 1039.53 493.861C1039.32 495.944 1035.04 508.656 1035.67 511.401C1036.31 514.145 1034.91 533.061 1035.01 535.92C1035.11 538.779 1023.17 560.05 991.801 580.566C965.745 597.609 928.334 608.795 924.499 609.346C920.664 609.897 916.905 597.033 914.121 596.322C906.835 594.462 885.312 602.367 877.277 604.387C867.902 606.744 846.026 612.177 822.118 609.106C792.546 605.308 788.021 601.946 760.836 587.144C741.896 576.831 728.729 556.31 724.653 546.092C724.004 544.464 725.478 543.015 727.146 543.55C744.55 549.131 785.446 564.487 831.981 569.258C897.242 575.949 948.789 544.939 956.173 540.482C987.216 521.744 1003.52 514.815 1022.75 488.851Z" fill="#211F1F"/>
</g>
<mask id="mask0_3_486" style="mask-type:alpha" maskUnits="userSpaceOnUse" x="724" y="450" width="320" height="161">
<path d="M1022.79 488.723C1031.34 477.159 1028.65 462.946 1025.33 452.964C1024.53 450.564 1027.01 449.091 1028.51 451.128C1038.35 464.495 1042.11 476.434 1043.02 482.333C1043.53 487.265 1043.41 490.396 1042.95 494.948C1042.74 497.031 1035.09 508.521 1035.73 511.265C1036.36 514.009 1034.98 532.926 1035.08 535.785C1035.17 538.644 1023.25 559.924 991.896 580.46C965.852 597.52 928.448 608.731 924.613 609.285C920.778 609.839 917.011 596.977 914.227 596.268C906.94 594.413 885.422 602.332 877.389 604.357C868.015 606.72 846.143 612.168 822.233 609.113C792.659 605.334 788.132 601.976 760.938 587.191C741.992 576.891 728.813 556.378 724.73 546.163C724.08 544.535 725.553 543.085 727.222 543.619C744.629 549.188 785.534 564.517 832.071 569.257C897.336 575.905 948.863 544.862 956.244 540.399C987.275 521.64 1003.58 514.701 1022.79 488.723Z" fill="#999999"/>
</mask>
<g mask="url(#mask0_3_486)">
<g filter="url(#filter19_d_3_486)">
<path d="M770.915 552.456L860.742 553.809C860.803 553.969 860.874 554.162 860.951 554.386C861.204 555.117 861.523 556.173 861.787 557.458C862.315 560.035 862.608 563.491 861.714 567.087C860.825 570.663 858.753 574.416 854.483 577.613C850.196 580.822 843.647 583.506 833.758 584.833C827.85 585.626 819.71 585.595 811.352 584.009C802.992 582.423 794.481 579.294 787.772 573.946C784.115 571.031 779.692 565.344 776.141 560.298C774.376 557.792 772.846 555.471 771.756 553.777C771.436 553.278 771.153 552.834 770.915 552.456Z" stroke="white" stroke-opacity="0.5" stroke-width="1.8525"/>
</g>
<g filter="url(#filter20_d_3_486)">
<path d="M1007.74 489.437L1027.42 459.61C1027.65 459.964 1027.93 460.417 1028.23 460.958C1029.07 462.428 1030.11 464.547 1030.93 467.133C1032.57 472.303 1033.34 479.307 1029.88 486.757C1028.86 488.946 1027.36 490.522 1025.7 491.193C1024.09 491.847 1022.2 491.691 1020.23 490.197C1019.24 489.453 1017.81 489.112 1016.34 488.966C1014.85 488.816 1013.19 488.857 1011.66 488.973C1010.17 489.087 1008.77 489.275 1007.74 489.437Z" stroke="white" stroke-opacity="0.5" stroke-width="1.54375"/>
</g>
</g>
<defs>
<filter id="filter0_f_3_486" x="133.583" y="323.431" width="937.895" height="437.001" filterUnits="userSpaceOnUse" color-interpolation-filters="sRGB">
<feFlood flood-opacity="0" result="BackgroundImageFix"/>
<feBlend mode="normal" in="SourceGraphic" in2="BackgroundImageFix" result="shape"/>
<feGaussianBlur stdDeviation="8.67815" result="effect1_foregroundBlur_3_486"/>
</filter>
<filter id="filter1_i_3_486" x="564.62" y="533.627" width="90.4447" height="126.808" filterUnits="userSpaceOnUse" color-interpolation-filters="sRGB">
<feFlood flood-opacity="0" result="BackgroundImageFix"/>
<feBlend mode="normal" in="SourceGraphic" in2="BackgroundImageFix" result="shape"/>
<feColorMatrix in="SourceAlpha" type="matrix" values="0 0 0 0 0 0 0 0 0 0 0 0 0 0 0 0 0 0 127 0" result="hardAlpha"/>
<feMorphology radius="0.622509" operator="erode" in="SourceAlpha" result="effect1_innerShadow_3_486"/>
<feOffset/>
<feGaussianBlur stdDeviation="0.311254"/>
<feComposite in2="hardAlpha" operator="arithmetic" k2="-1" k3="1"/>
<feColorMatrix type="matrix" values="0 0 0 0 0 0 0 0 0 0 0 0 0 0 0 0 0 0 0.25 0"/>
<feBlend mode="normal" in2="shape" result="effect1_innerShadow_3_486"/>
</filter>
<filter id="filter2_di_3_486" x="570.373" y="544.213" width="77.4032" height="106.75" filterUnits="userSpaceOnUse" color-interpolation-filters="sRGB">
<feFlood flood-opacity="0" result="BackgroundImageFix"/>
<feColorMatrix in="SourceAlpha" type="matrix" values="0 0 0 0 0 0 0 0 0 0 0 0 0 0 0 0 0 0 127 0" result="hardAlpha"/>
<feOffset dy="0.249004"/>
<feGaussianBlur stdDeviation="0.186753"/>
<feColorMatrix type="matrix" values="0 0 0 0 1 0 0 0 0 1 0 0 0 0 1 0 0 0 0.41 0"/>
<feBlend mode="normal" in2="BackgroundImageFix" result="effect1_dropShadow_3_486"/>
<feBlend mode="normal" in="SourceGraphic" in2="effect1_dropShadow_3_486" result="shape"/>
<feColorMatrix in="SourceAlpha" type="matrix" values="0 0 0 0 0 0 0 0 0 0 0 0 0 0 0 0 0 0 127 0" result="hardAlpha"/>
<feOffset dx="-1.86753" dy="1.24502"/>
<feGaussianBlur stdDeviation="0.933763"/>
<feComposite in2="hardAlpha" operator="arithmetic" k2="-1" k3="1"/>
<feColorMatrix type="matrix" values="0 0 0 0 0 0 0 0 0 0 0 0 0 0 0 0 0 0 0.25 0"/>
<feBlend mode="normal" in2="shape" result="effect2_innerShadow_3_486"/>
</filter>
<filter id="filter3_i_3_486" x="568.099" y="535.574" width="84.4018" height="122.909" filterUnits="userSpaceOnUse" color-interpolation-filters="sRGB">
<feFlood flood-opacity="0" result="BackgroundImageFix"/>
<feBlend mode="normal" in="SourceGraphic" in2="BackgroundImageFix" result="shape"/>
<feColorMatrix in="SourceAlpha" type="matrix" values="0 0 0 0 0 0 0 0 0 0 0 0 0 0 0 0 0 0 127 0" result="hardAlpha"/>
<feMorphology radius="0.45706" operator="erode" in="SourceAlpha" result="effect1_innerShadow_3_486"/>
<feOffset/>
<feGaussianBlur stdDeviation="0.22853"/>
<feComposite in2="hardAlpha" operator="arithmetic" k2="-1" k3="1"/>
<feColorMatrix type="matrix" values="0 0 0 0 0 0 0 0 0 0 0 0 0 0 0 0 0 0 0.25 0"/>
<feBlend mode="normal" in2="shape" result="effect1_innerShadow_3_486"/>
</filter>
<filter id="filter4_di_3_486" x="577.181" y="551.363" width="64.721" height="92.3549" filterUnits="userSpaceOnUse" color-interpolation-filters="sRGB">
<feFlood flood-opacity="0" result="BackgroundImageFix"/>
<feColorMatrix in="SourceAlpha" type="matrix" values="0 0 0 0 0 0 0 0 0 0 0 0 0 0 0 0 0 0 127 0" result="hardAlpha"/>
<feOffset dy="0.249003"/>
<feGaussianBlur stdDeviation="0.186753"/>
<feColorMatrix type="matrix" values="0 0 0 0 1 0 0 0 0 1 0 0 0 0 1 0 0 0 0.41 0"/>
<feBlend mode="normal" in2="BackgroundImageFix" result="effect1_dropShadow_3_486"/>
<feBlend mode="normal" in="SourceGraphic" in2="effect1_dropShadow_3_486" result="shape"/>
<feColorMatrix in="SourceAlpha" type="matrix" values="0 0 0 0 0 0 0 0 0 0 0 0 0 0 0 0 0 0 127 0" result="hardAlpha"/>
<feOffset dx="-1.86753" dy="1.24502"/>
<feGaussianBlur stdDeviation="0.933763"/>
<feComposite in2="hardAlpha" operator="arithmetic" k2="-1" k3="1"/>
<feColorMatrix type="matrix" values="0 0 0 0 0 0 0 0 0 0 0 0 0 0 0 0 0 0 0.25 0"/>
<feBlend mode="normal" in2="shape" result="effect2_innerShadow_3_486"/>
</filter>
<filter id="filter5_i_3_486" x="222.122" y="364.458" width="68.5437" height="108.85" filterUnits="userSpaceOnUse" color-interpolation-filters="sRGB">
<feFlood flood-opacity="0" result="BackgroundImageFix"/>
<feBlend mode="normal" in="SourceGraphic" in2="BackgroundImageFix" result="shape"/>
<feColorMatrix in="SourceAlpha" type="matrix" values="0 0 0 0 0 0 0 0 0 0 0 0 0 0 0 0 0 0 127 0" result="hardAlpha"/>
<feMorphology radius="0.514076" operator="erode" in="SourceAlpha" result="effect1_innerShadow_3_486"/>
<feOffset/>
<feGaussianBlur stdDeviation="0.257038"/>
<feComposite in2="hardAlpha" operator="arithmetic" k2="-1" k3="1"/>
<feColorMatrix type="matrix" values="0 0 0 0 0 0 0 0 0 0 0 0 0 0 0 0 0 0 0.25 0"/>
<feBlend mode="normal" in2="shape" result="effect1_innerShadow_3_486"/>
</filter>
<filter id="filter6_di_3_486" x="226.343" y="373.555" width="58.8125" height="91.589" filterUnits="userSpaceOnUse" color-interpolation-filters="sRGB">
<feFlood flood-opacity="0" result="BackgroundImageFix"/>
<feColorMatrix in="SourceAlpha" type="matrix" values="0 0 0 0 0 0 0 0 0 0 0 0 0 0 0 0 0 0 127 0" result="hardAlpha"/>
<feOffset dy="0.20563"/>
<feGaussianBlur stdDeviation="0.154223"/>
<feColorMatrix type="matrix" values="0 0 0 0 1 0 0 0 0 1 0 0 0 0 1 0 0 0 0.41 0"/>
<feBlend mode="normal" in2="BackgroundImageFix" result="effect1_dropShadow_3_486"/>
<feBlend mode="normal" in="SourceGraphic" in2="effect1_dropShadow_3_486" result="shape"/>
<feColorMatrix in="SourceAlpha" type="matrix" values="0 0 0 0 0 0 0 0 0 0 0 0 0 0 0 0 0 0 127 0" result="hardAlpha"/>
<feOffset dx="-1.54223" dy="1.02815"/>
<feGaussianBlur stdDeviation="0.771114"/>
<feComposite in2="hardAlpha" operator="arithmetic" k2="-1" k3="1"/>
<feColorMatrix type="matrix" values="0 0 0 0 0 0 0 0 0 0 0 0 0 0 0 0 0 0 0.25 0"/>
<feBlend mode="normal" in2="shape" result="effect2_innerShadow_3_486"/>
</filter>
<filter id="filter7_i_3_486" x="221.419" y="372.432" width="66.9634" height="103.538" filterUnits="userSpaceOnUse" color-interpolation-filters="sRGB">
<feFlood flood-opacity="0" result="BackgroundImageFix"/>
<feBlend mode="normal" in="SourceGraphic" in2="BackgroundImageFix" result="shape"/>
<feColorMatrix in="SourceAlpha" type="matrix" values="0 0 0 0 0 0 0 0 0 0 0 0 0 0 0 0 0 0 127 0" result="hardAlpha"/>
<feMorphology radius="0.45706" operator="erode" in="SourceAlpha" result="effect1_innerShadow_3_486"/>
<feOffset/>
<feGaussianBlur stdDeviation="0.22853"/>
<feComposite in2="hardAlpha" operator="arithmetic" k2="-1" k3="1"/>
<feColorMatrix type="matrix" values="0 0 0 0 0 0 0 0 0 0 0 0 0 0 0 0 0 0 0.25 0"/>
<feBlend mode="normal" in2="shape" result="effect1_innerShadow_3_486"/>
</filter>
<filter id="filter8_i_3_486" x="221.419" y="372.432" width="66.9634" height="103.538" filterUnits="userSpaceOnUse" color-interpolation-filters="sRGB">
<feFlood flood-opacity="0" result="BackgroundImageFix"/>
<feBlend mode="normal" in="SourceGraphic" in2="BackgroundImageFix" result="shape"/>
<feColorMatrix in="SourceAlpha" type="matrix" values="0 0 0 0 0 0 0 0 0 0 0 0 0 0 0 0 0 0 127 0" result="hardAlpha"/>
<feMorphology radius="0.462662" operator="erode" in="SourceAlpha" result="effect1_innerShadow_3_486"/>
<feOffset/>
<feGaussianBlur stdDeviation="0.231331"/>
<feComposite in2="hardAlpha" operator="arithmetic" k2="-1" k3="1"/>
<feColorMatrix type="matrix" values="0 0 0 0 0 0 0 0 0 0 0 0 0 0 0 0 0 0 0.25 0"/>
<feBlend mode="normal" in2="shape" result="effect1_innerShadow_3_486"/>
</filter>
<filter id="filter9_di_3_486" x="227.888" y="385.398" width="50.8065" height="78.6801" filterUnits="userSpaceOnUse" color-interpolation-filters="sRGB">
<feFlood flood-opacity="0" result="BackgroundImageFix"/>
<feColorMatrix in="SourceAlpha" type="matrix" values="0 0 0 0 0 0 0 0 0 0 0 0 0 0 0 0 0 0 127 0" result="hardAlpha"/>
<feOffset dy="0.249004"/>
<feGaussianBlur stdDeviation="0.186753"/>
<feColorMatrix type="matrix" values="0 0 0 0 1 0 0 0 0 1 0 0 0 0 1 0 0 0 0.41 0"/>
<feBlend mode="normal" in2="BackgroundImageFix" result="effect1_dropShadow_3_486"/>
<feBlend mode="normal" in="SourceGraphic" in2="effect1_dropShadow_3_486" result="shape"/>
<feColorMatrix in="SourceAlpha" type="matrix" values="0 0 0 0 0 0 0 0 0 0 0 0 0 0 0 0 0 0 127 0" result="hardAlpha"/>
<feOffset dx="-1.86753" dy="1.24502"/>
<feGaussianBlur stdDeviation="0.933763"/>
<feComposite in2="hardAlpha" operator="arithmetic" k2="-1" k3="1"/>
<feColorMatrix type="matrix" values="0 0 0 0 0 0 0 0 0 0 0 0 0 0 0 0 0 0 0.25 0"/>
<feBlend mode="normal" in2="shape" result="effect2_innerShadow_3_486"/>
</filter>
<filter id="filter10_ii_3_486" x="179.686" y="157.005" width="866.98" height="544.948" filterUnits="userSpaceOnUse" color-interpolation-filters="sRGB">
<feFlood flood-opacity="0" result="BackgroundImageFix"/>
<feBlend mode="normal" in="SourceGraphic" in2="BackgroundImageFix" result="shape"/>
<feColorMatrix in="SourceAlpha" type="matrix" values="0 0 0 0 0 0 0 0 0 0 0 0 0 0 0 0 0 0 127 0" result="hardAlpha"/>
<feOffset dx="3.73505" dy="-4.98007"/>
<feGaussianBlur stdDeviation="14.9402"/>
<feComposite in2="hardAlpha" operator="arithmetic" k2="-1" k3="1"/>
<feColorMatrix type="matrix" values="0 0 0 0 0 0 0 0 0 0 0 0 0 0 0 0 0 0 0.07 0"/>
<feBlend mode="normal" in2="shape" result="effect1_innerShadow_3_486"/>
<feColorMatrix in="SourceAlpha" type="matrix" values="0 0 0 0 0 0 0 0 0 0 0 0 0 0 0 0 0 0 127 0" result="hardAlpha"/>
<feOffset dy="-0.622509"/>
<feGaussianBlur stdDeviation="1.24502"/>
<feComposite in2="hardAlpha" operator="arithmetic" k2="-1" k3="1"/>
<feColorMatrix type="matrix" values="0 0 0 0 0 0 0 0 0 0 0 0 0 0 0 0 0 0 0.25 0"/>
<feBlend mode="normal" in2="effect1_innerShadow_3_486" result="effect2_innerShadow_3_486"/>
</filter>
<filter id="filter11_ddi_3_486" x="507.01" y="236.043" width="320.887" height="189.294" filterUnits="userSpaceOnUse" color-interpolation-filters="sRGB">
<feFlood flood-opacity="0" result="BackgroundImageFix"/>
<feColorMatrix in="SourceAlpha" type="matrix" values="0 0 0 0 0 0 0 0 0 0 0 0 0 0 0 0 0 0 127 0" result="hardAlpha"/>
<feOffset dx="-1.24502" dy="0.622509"/>
<feGaussianBlur stdDeviation="0.622509"/>
<feColorMatrix type="matrix" values="0 0 0 0 1 0 0 0 0 1 0 0 0 0 1 0 0 0 0.28 0"/>
<feBlend mode="normal" in2="BackgroundImageFix" result="effect1_dropShadow_3_486"/>
<feColorMatrix in="SourceAlpha" type="matrix" values="0 0 0 0 0 0 0 0 0 0 0 0 0 0 0 0 0 0 127 0" result="hardAlpha"/>
<feOffset dy="-0.622509"/>
<feGaussianBlur stdDeviation="0.622509"/>
<feColorMatrix type="matrix" values="0 0 0 0 1 0 0 0 0 1 0 0 0 0 1 0 0 0 0.56 0"/>
<feBlend mode="normal" in2="effect1_dropShadow_3_486" result="effect2_dropShadow_3_486"/>
<feBlend mode="normal" in="SourceGraphic" in2="effect2_dropShadow_3_486" result="shape"/>
<feColorMatrix in="SourceAlpha" type="matrix" values="0 0 0 0 0 0 0 0 0 0 0 0 0 0 0 0 0 0 127 0" result="hardAlpha"/>
<feOffset dx="-0.622509" dy="1.86753"/>
<feGaussianBlur stdDeviation="0.933763"/>
<feComposite in2="hardAlpha" operator="arithmetic" k2="-1" k3="1"/>
<feColorMatrix type="matrix" values="0 0 0 0 0 0 0 0 0 0 0 0 0 0 0 0 0 0 0.75 0"/>
<feBlend mode="normal" in2="shape" result="effect3_innerShadow_3_486"/>
</filter>
<filter id="filter12_di_3_486" x="256.212" y="248.272" width="306.994" height="172.269" filterUnits="userSpaceOnUse" color-interpolation-filters="sRGB">
<feFlood flood-opacity="0" result="BackgroundImageFix"/>
<feColorMatrix in="SourceAlpha" type="matrix" values="0 0 0 0 0 0 0 0 0 0 0 0 0 0 0 0 0 0 127 0" result="hardAlpha"/>
<feOffset dy="0.643755"/>
<feGaussianBlur stdDeviation="0.321877"/>
<feColorMatrix type="matrix" values="0 0 0 0 0.925374 0 0 0 0 0.925374 0 0 0 0 0.925374 0 0 0 0.37 0"/>
<feBlend mode="normal" in2="BackgroundImageFix" result="effect1_dropShadow_3_486"/>
<feBlend mode="normal" in="SourceGraphic" in2="effect1_dropShadow_3_486" result="shape"/>
<feColorMatrix in="SourceAlpha" type="matrix" values="0 0 0 0 0 0 0 0 0 0 0 0 0 0 0 0 0 0 127 0" result="hardAlpha"/>
<feOffset dx="-2.49003" dy="3.11254"/>
<feGaussianBlur stdDeviation="1.24502"/>
<feComposite in2="hardAlpha" operator="arithmetic" k2="-1" k3="1"/>
<feColorMatrix type="matrix" values="0 0 0 0 0 0 0 0 0 0 0 0 0 0 0 0 0 0 0.8 0"/>
<feBlend mode="normal" in2="shape" result="effect2_innerShadow_3_486"/>
</filter>
<filter id="filter13_di_3_486" x="256.979" y="165.965" width="210.741" height="76.3289" filterUnits="userSpaceOnUse" color-interpolation-filters="sRGB">
<feFlood flood-opacity="0" result="BackgroundImageFix"/>
<feColorMatrix in="SourceAlpha" type="matrix" values="0 0 0 0 0 0 0 0 0 0 0 0 0 0 0 0 0 0 127 0" result="hardAlpha"/>
<feOffset dy="0.643755"/>
<feGaussianBlur stdDeviation="0.321877"/>
<feColorMatrix type="matrix" values="0 0 0 0 0.925374 0 0 0 0 0.925374 0 0 0 0 0.925374 0 0 0 0.37 0"/>
<feBlend mode="normal" in2="BackgroundImageFix" result="effect1_dropShadow_3_486"/>
<feBlend mode="normal" in="SourceGraphic" in2="effect1_dropShadow_3_486" result="shape"/>
<feColorMatrix in="SourceAlpha" type="matrix" values="0 0 0 0 0 0 0 0 0 0 0 0 0 0 0 0 0 0 127 0" result="hardAlpha"/>
<feOffset dx="-2.49003" dy="3.11254"/>
<feGaussianBlur stdDeviation="1.24502"/>
<feComposite in2="hardAlpha" operator="arithmetic" k2="-1" k3="1"/>
<feColorMatrix type="matrix" values="0 0 0 0 0 0 0 0 0 0 0 0 0 0 0 0 0 0 0.8 0"/>
<feBlend mode="normal" in2="shape" result="effect2_innerShadow_3_486"/>
</filter>
<filter id="filter14_f_3_486" x="524.95" y="393.248" width="389.814" height="166.995" filterUnits="userSpaceOnUse" color-interpolation-filters="sRGB">
<feFlood flood-opacity="0" result="BackgroundImageFix"/>
<feBlend mode="normal" in="SourceGraphic" in2="BackgroundImageFix" result="shape"/>
<feGaussianBlur stdDeviation="8.71512" result="effect1_foregroundBlur_3_486"/>
</filter>
<filter id="filter15_di_3_486" x="425.338" y="408.581" width="27.2773" height="22.2902" filterUnits="userSpaceOnUse" color-interpolation-filters="sRGB">
<feFlood flood-opacity="0" result="BackgroundImageFix"/>
<feColorMatrix in="SourceAlpha" type="matrix" values="0 0 0 0 0 0 0 0 0 0 0 0 0 0 0 0 0 0 127 0" result="hardAlpha"/>
<feOffset dy="-0.308751"/>
<feGaussianBlur stdDeviation="0.154375"/>
<feColorMatrix type="matrix" values="0 0 0 0 0.78755 0 0 0 0 0.78755 0 0 0 0 0.78755 0 0 0 0.19 0"/>
<feBlend mode="normal" in2="BackgroundImageFix" result="effect1_dropShadow_3_486"/>
<feBlend mode="normal" in="SourceGraphic" in2="effect1_dropShadow_3_486" result="shape"/>
<feColorMatrix in="SourceAlpha" type="matrix" values="0 0 0 0 0 0 0 0 0 0 0 0 0 0 0 0 0 0 127 0" result="hardAlpha"/>
<feOffset dy="1.54375"/>
<feGaussianBlur stdDeviation="0.771877"/>
<feComposite in2="hardAlpha" operator="arithmetic" k2="-1" k3="1"/>
<feColorMatrix type="matrix" values="0 0 0 0 0 0 0 0 0 0 0 0 0 0 0 0 0 0 0.74 0"/>
<feBlend mode="normal" in2="shape" result="effect2_innerShadow_3_486"/>
</filter>
<filter id="filter16_di_3_486" x="301.629" y="354.01" width="27.2774" height="22.2902" filterUnits="userSpaceOnUse" color-interpolation-filters="sRGB">
<feFlood flood-opacity="0" result="BackgroundImageFix"/>
<feColorMatrix in="SourceAlpha" type="matrix" values="0 0 0 0 0 0 0 0 0 0 0 0 0 0 0 0 0 0 127 0" result="hardAlpha"/>
<feOffset dy="-0.308751"/>
<feGaussianBlur stdDeviation="0.154375"/>
<feColorMatrix type="matrix" values="0 0 0 0 0.78755 0 0 0 0 0.78755 0 0 0 0 0.78755 0 0 0 0.19 0"/>
<feBlend mode="normal" in2="BackgroundImageFix" result="effect1_dropShadow_3_486"/>
<feBlend mode="normal" in="SourceGraphic" in2="effect1_dropShadow_3_486" result="shape"/>
<feColorMatrix in="SourceAlpha" type="matrix" values="0 0 0 0 0 0 0 0 0 0 0 0 0 0 0 0 0 0 127 0" result="hardAlpha"/>
<feOffset dy="1.54375"/>
<feGaussianBlur stdDeviation="0.771877"/>
<feComposite in2="hardAlpha" operator="arithmetic" k2="-1" k3="1"/>
<feColorMatrix type="matrix" values="0 0 0 0 0 0 0 0 0 0 0 0 0 0 0 0 0 0 0.74 0"/>
<feBlend mode="normal" in2="shape" result="effect2_innerShadow_3_486"/>
</filter>
<filter id="filter17_f_3_486" x="796.031" y="450.49" width="222.866" height="137.621" filterUnits="userSpaceOnUse" color-interpolation-filters="sRGB">
<feFlood flood-opacity="0" result="BackgroundImageFix"/>
<feBlend mode="normal" in="SourceGraphic" in2="BackgroundImageFix" result="shape"/>
<feGaussianBlur stdDeviation="3.11254" result="effect1_foregroundBlur_3_486"/>
</filter>
<filter id="filter18_dii_3_486" x="721.005" y="450.192" width="322.552" height="163.905" filterUnits="userSpaceOnUse" color-interpolation-filters="sRGB">
<feFlood flood-opacity="0" result="BackgroundImageFix"/>
<feColorMatrix in="SourceAlpha" type="matrix" values="0 0 0 0 0 0 0 0 0 0 0 0 0 0 0 0 0 0 127 0" result="hardAlpha"/>
<feOffset dy="0.581988"/>
<feGaussianBlur stdDeviation="1.74596"/>
<feColorMatrix type="matrix" values="0 0 0 0 0 0 0 0 0 0 0 0 0 0 0 0 0 0 0.85 0"/>
<feBlend mode="normal" in2="BackgroundImageFix" result="effect1_dropShadow_3_486"/>
<feBlend mode="normal" in="SourceGraphic" in2="effect1_dropShadow_3_486" result="shape"/>
<feColorMatrix in="SourceAlpha" type="matrix" values="0 0 0 0 0 0 0 0 0 0 0 0 0 0 0 0 0 0 127 0" result="hardAlpha"/>
<feOffset dy="0.581988"/>
<feGaussianBlur stdDeviation="0.581988"/>
<feComposite in2="hardAlpha" operator="arithmetic" k2="-1" k3="1"/>
<feColorMatrix type="matrix" values="0 0 0 0 0 0 0 0 0 0 0 0 0 0 0 0 0 0 0.25 0"/>
<feBlend mode="normal" in2="shape" result="effect2_innerShadow_3_486"/>
<feColorMatrix in="SourceAlpha" type="matrix" values="0 0 0 0 0 0 0 0 0 0 0 0 0 0 0 0 0 0 127 0" result="hardAlpha"/>
<feOffset dy="-0.581988"/>
<feGaussianBlur stdDeviation="0.581988"/>
<feComposite in2="hardAlpha" operator="arithmetic" k2="-1" k3="1"/>
<feColorMatrix type="matrix" values="0 0 0 0 0 0 0 0 0 0 0 0 0 0 0 0 0 0 0.25 0"/>
<feBlend mode="normal" in2="effect2_innerShadow_3_486" result="effect3_innerShadow_3_486"/>
</filter>
<filter id="filter19_d_3_486" x="768.305" y="551.504" width="97.069" height="37.8517" filterUnits="userSpaceOnUse" color-interpolation-filters="sRGB">
<feFlood flood-opacity="0" result="BackgroundImageFix"/>
<feColorMatrix in="SourceAlpha" type="matrix" values="0 0 0 0 0 0 0 0 0 0 0 0 0 0 0 0 0 0 127 0" result="hardAlpha"/>
<feOffset dx="0.617501" dy="1.54375"/>
<feGaussianBlur stdDeviation="0.771877"/>
<feColorMatrix type="matrix" values="0 0 0 0 1 0 0 0 0 1 0 0 0 0 1 0 0 0 0.24 0"/>
<feBlend mode="normal" in2="BackgroundImageFix" result="effect1_dropShadow_3_486"/>
<feBlend mode="normal" in="SourceGraphic" in2="effect1_dropShadow_3_486" result="shape"/>
</filter>
<filter id="filter20_d_3_486" x="1006.11" y="458.227" width="28.5593" height="35.6786" filterUnits="userSpaceOnUse" color-interpolation-filters="sRGB">
<feFlood flood-opacity="0" result="BackgroundImageFix"/>
<feColorMatrix in="SourceAlpha" type="matrix" values="0 0 0 0 0 0 0 0 0 0 0 0 0 0 0 0 0 0 127 0" result="hardAlpha"/>
<feOffset dx="0.926252" dy="0.926252"/>
<feGaussianBlur stdDeviation="0.323923"/>
<feColorMatrix type="matrix" values="0 0 0 0 1 0 0 0 0 1 0 0 0 0 1 0 0 0 0.24 0"/>
<feBlend mode="normal" in2="BackgroundImageFix" result="effect1_dropShadow_3_486"/>
<feBlend mode="normal" in="SourceGraphic" in2="effect1_dropShadow_3_486" result="shape"/>
</filter>
<linearGradient id="paint0_linear_3_486" x1="93.1577" y1="102.34" x2="97.7959" y2="33.3471" gradientUnits="userSpaceOnUse">
<stop stop-color="#3F3F3F"/>
<stop offset="1" stop-color="#5C5C5C"/>
</linearGradient>
<linearGradient id="paint1_linear_3_486" x1="87.1045" y1="89.8227" x2="60.9754" y2="-30.0843" gradientUnits="userSpaceOnUse">
<stop stop-color="#3F3F3F"/>
<stop offset="1" stop-color="#777676"/>
</linearGradient>
<linearGradient id="paint2_linear_3_486" x1="76.9365" y1="84.5071" x2="80.7659" y2="27.5363" gradientUnits="userSpaceOnUse">
<stop stop-color="#3F3F3F"/>
<stop offset="1" stop-color="#5C5C5C"/>
</linearGradient>
<linearGradient id="paint3_linear_3_486" x1="72.0062" y1="74.2645" x2="50.3999" y2="-24.872" gradientUnits="userSpaceOnUse">
<stop stop-color="#3F3F3F"/>
<stop offset="1" stop-color="#777676"/>
</linearGradient>
<linearGradient id="paint4_linear_3_486" x1="217.058" y1="432.168" x2="241.222" y2="366.056" gradientUnits="userSpaceOnUse">
<stop stop-color="#3F3F3F"/>
<stop offset="1" stop-color="#777676"/>
</linearGradient>
<linearGradient id="paint5_linear_3_486" x1="702.266" y1="678.198" x2="970.16" y2="287.13" gradientUnits="userSpaceOnUse">
<stop stop-color="#2C2C2C"/>
<stop offset="0.628054" stop-color="#515151"/>
<stop offset="1" stop-color="#7D7D7D"/>
</linearGradient>
<linearGradient id="paint6_linear_3_486" x1="703.279" y1="74.4257" x2="477.916" y2="287.688" gradientUnits="userSpaceOnUse">
<stop stop-color="#E8EAE9"/>
<stop offset="0.498386" stop-color="#707072"/>
<stop offset="1" stop-color="#2F3032"/>
</linearGradient>
<linearGradient id="paint7_linear_3_486" x1="333.204" y1="788.685" x2="548.479" y2="395.179" gradientUnits="userSpaceOnUse">
<stop stop-color="#E8EAE9"/>
<stop offset="0.498386" stop-color="#707072"/>
<stop offset="1" stop-color="#2F3032"/>
</linearGradient>
<linearGradient id="paint8_linear_3_486" x1="241.364" y1="382.046" x2="361.405" y2="206.337" gradientUnits="userSpaceOnUse">
<stop stop-color="#E8EAE9"/>
<stop offset="0.498386" stop-color="#707072"/>
<stop offset="1" stop-color="#2F3032"/>
</linearGradient>
<linearGradient id="paint9_linear_3_486" x1="708.127" y1="550.47" x2="736.093" y2="468.707" gradientUnits="userSpaceOnUse">
<stop stop-color="#ECEAEA"/>
<stop offset="1" stop-color="white" stop-opacity="0"/>
</linearGradient>
<linearGradient id="paint10_linear_3_486" x1="910.064" y1="560.446" x2="891.209" y2="523.772" gradientUnits="userSpaceOnUse">
<stop stop-color="#4B4B4B"/>
<stop offset="0.899322" stop-opacity="0"/>
</linearGradient>
</defs>
</svg>
