<svg width="938" height="686" viewBox="0 0 938 686" fill="none" xmlns="http://www.w3.org/2000/svg">
<g filter="url(#filter0_f_3_244)">
<path d="M732.498 652.23C771.565 640.43 842.686 608.188 868.247 584.325C897.721 559.347 848.843 529.26 841.589 525.049C834.335 520.838 368.969 288.768 306.794 261.396C244.619 234.023 85.5231 330.475 37.8501 356.952C-1.00918 378.534 26.4513 393.799 31.6326 398.011C36.8138 402.222 392.609 586.43 499.343 636.964C580.172 675.233 655.816 675.391 732.498 652.23Z" fill="black" fill-opacity="0.2"/>
</g>
<path fill-rule="evenodd" clip-rule="evenodd" d="M399.682 415.376L447.34 393.265L447.346 393.278C447.647 393.132 447.951 392.99 448.257 392.853C476.645 380.109 517.145 408.985 538.716 457.349C560.287 505.714 554.761 555.252 526.372 567.996C526.085 568.125 525.797 568.25 525.507 568.37L479.249 589.862L453.75 533.944C447.034 525.05 440.956 514.808 435.913 503.5C431.259 493.067 427.867 482.578 425.693 472.417L399.682 415.376Z" fill="black"/>
<ellipse cx="56.3665" cy="95.7734" rx="56.3665" ry="95.7734" transform="matrix(-0.911904 0.409419 0.407458 0.913666 452.487 391.846)" fill="black"/>
<g filter="url(#filter1_i_3_244)">
<ellipse cx="42.2769" cy="71.8334" rx="42.2769" ry="71.8334" transform="matrix(-0.911904 0.409419 0.407458 0.913666 447.764 419.535)" fill="url(#paint0_linear_3_244)"/>
</g>
<g filter="url(#filter2_di_3_244)">
<path fill-rule="evenodd" clip-rule="evenodd" d="M439.65 450.994C445.915 454.593 452.108 460.041 457.683 466.95L445.353 488.378C443.561 486.275 441.622 484.556 439.65 483.302L439.65 450.994ZM439.65 523.651C442.541 524.912 445.404 525.112 447.885 523.998C447.975 523.957 448.063 523.916 448.151 523.872L466.134 555.121C465.079 555.849 463.96 556.483 462.778 557.014C455.839 560.129 447.741 559.258 439.65 555.231L439.65 523.651ZM437.66 554.178L437.66 522.619C435.43 521.279 433.231 519.338 431.228 516.915L419.152 537.902C424.865 545.003 431.23 550.567 437.66 554.178ZM437.66 482.202L437.66 449.915C429.436 445.716 421.184 444.763 414.131 447.93C412.157 448.816 410.361 449.987 408.746 451.41L426.929 483.006C427.553 482.459 428.246 482.008 429.007 481.666C431.608 480.498 434.628 480.774 437.66 482.202ZM406.416 516.856C409.632 524.068 413.524 530.583 417.828 536.214L429.912 515.213C428.452 513.197 427.128 510.913 426.013 508.414C425.812 507.963 425.621 507.512 425.439 507.061L404.65 512.65C405.203 514.052 405.791 515.455 406.416 516.856ZM446.686 490.05L459.008 468.636C463.34 474.288 467.258 480.836 470.492 488.088C471.133 489.524 471.735 490.963 472.299 492.4L451.231 498.064C451.118 497.793 451 497.521 450.879 497.25C449.69 494.584 448.263 492.163 446.686 490.05ZM403.935 510.78C400.116 500.487 398.248 490.293 398.227 481.144L422.851 495.408C422.955 498.472 423.576 501.806 424.74 505.186L403.935 510.78ZM451.96 499.931C453.373 503.844 454.059 507.71 454.057 511.185L478.665 525.44C478.877 515.908 477.034 505.147 473.012 494.271L451.96 499.931ZM478.576 527.69L453.955 513.427C453.581 517.468 452.178 520.8 449.819 522.781L467.73 553.905C474.23 548.466 477.92 539.056 478.576 527.69ZM398.26 478.862L422.872 493.12C423.059 489.688 423.957 486.711 425.525 484.556L407.269 452.833C401.677 458.717 398.611 467.959 398.26 478.862Z" fill="#4C4C4C"/>
</g>
<path fill-rule="evenodd" clip-rule="evenodd" d="M453.85 533.112C447.087 524.181 440.967 513.884 435.895 502.509C431.214 492.014 427.81 481.463 425.638 471.245L399.707 414.38L447.248 392.323C447.576 392.162 447.907 392.007 448.242 391.857C476.63 379.111 517.127 407.987 538.695 456.353C560.264 504.719 554.736 554.259 526.348 567.005C526.202 567.07 526.056 567.135 525.909 567.198L479.274 588.866L453.85 533.112Z" fill="black"/>
<path d="M388.121 524.338C409.673 572.665 450.158 601.51 478.545 588.765C506.933 576.02 512.475 526.51 490.923 478.183C469.37 429.855 427.668 398.408 399.28 411.153C370.892 423.899 366.569 476.01 388.121 524.338Z" fill="black"/>
<g filter="url(#filter3_i_3_244)">
<ellipse cx="39.6239" cy="69.272" rx="39.6239" ry="69.272" transform="matrix(-0.939692 0.3422 0.316258 0.948659 454.281 423.196)" fill="url(#paint1_linear_3_244)"/>
</g>
<g filter="url(#filter4_di_3_244)">
<path fill-rule="evenodd" clip-rule="evenodd" d="M412.098 514.463C420.893 538.936 438.527 554.876 453.002 551.706L444.516 526.845C438.005 527.212 430.548 520.338 426.348 509.931L412.098 514.463ZM410.261 508.771C403.416 484.904 407.586 462.243 420.013 455.057L428.497 479.914C423.488 483.949 421.824 493.754 424.489 504.246L410.261 508.771ZM451.819 495.554C447.823 485.189 440.599 478.163 434.137 477.995L425.609 453.01C440.08 450.447 457.482 466.572 466.065 491.023L451.819 495.554ZM453.591 501.266L467.86 496.728C474.337 519.97 470.372 541.943 458.521 549.431L449.991 524.44C454.453 520.232 455.925 511.1 453.591 501.266Z" fill="#474747"/>
</g>
<path fill-rule="evenodd" clip-rule="evenodd" d="M62.6281 277.451L98.3304 260.887L98.3403 260.909C98.5695 260.798 98.8008 260.69 99.0342 260.585C120.301 251.038 150.641 272.67 166.801 308.902C182.961 345.133 178.82 382.244 157.553 391.792C157.25 391.928 156.946 392.057 156.639 392.181L122.235 408.166L103.114 366.235C98.0969 359.583 93.5561 351.926 89.7867 343.475C86.3094 335.678 83.7721 327.841 82.1431 320.247L62.6281 277.451Z" fill="black"/>
<ellipse cx="42.2264" cy="71.7476" rx="42.2264" ry="71.7476" transform="matrix(-0.911904 0.409419 0.407458 0.913666 102.155 259.824)" fill="black"/>
<g filter="url(#filter5_i_3_244)">
<ellipse cx="31.6712" cy="53.8132" rx="31.6712" ry="53.8132" transform="matrix(-0.911904 0.409419 0.407458 0.913666 98.6166 280.565)" fill="url(#paint2_linear_3_244)"/>
</g>
<g filter="url(#filter6_di_3_244)">
<path fill-rule="evenodd" clip-rule="evenodd" d="M93.0475 304.424C97.5711 307.119 102.03 311.093 106.059 316.086L96.8228 332.138C95.6311 330.74 94.3528 329.569 93.0475 328.666L93.0475 304.424ZM93.0475 358.766C94.9432 359.487 96.8072 359.586 98.4604 358.933L111.975 382.417C111.308 382.847 110.609 383.228 109.876 383.557C104.821 385.827 98.9429 385.272 93.0475 382.464L93.0475 358.766ZM91.0581 381.431L91.0581 357.789C89.5141 356.861 87.9905 355.549 86.584 353.922L77.5313 369.654C81.7233 374.775 86.3676 378.797 91.0581 381.431ZM91.0581 327.511L91.0581 303.324C84.8974 300.179 78.7166 299.466 73.4331 301.838C71.9549 302.502 70.6094 303.379 69.3994 304.445L83.0214 328.116C83.4889 327.705 84.0082 327.367 84.5785 327.111C86.5259 326.237 88.7874 326.443 91.0581 327.511ZM67.6537 353.473C70.0629 358.875 72.9786 363.756 76.2023 367.974L85.2551 352.241C84.1619 350.731 83.1704 349.021 82.3357 347.149C82.2545 346.967 82.1754 346.785 82.0984 346.602L66.5177 350.791C66.8766 351.685 67.2553 352.58 67.6537 353.473ZM98.1439 333.832L107.38 317.78C110.495 321.915 113.315 326.672 115.656 331.922C116.136 332.999 116.587 334.077 117.01 335.154L101.228 339.397C101.143 339.193 101.054 338.989 100.964 338.786C100.154 336.971 99.1978 335.308 98.1439 333.832ZM65.7961 348.923C63.0151 341.429 61.6152 334.006 61.5236 327.303L79.9954 338.004C80.1276 340.132 80.5851 342.418 81.3821 344.733L65.7961 348.923ZM101.94 341.268C102.886 344.038 103.346 346.765 103.344 349.229L121.778 359.907C121.935 352.904 120.61 345.014 117.717 337.026L101.94 341.268ZM121.676 362.149L103.209 351.451C102.857 354.232 101.829 356.519 100.169 357.913L113.587 381.228C118.349 377.243 121.098 370.413 121.676 362.149ZM61.544 325.014L79.9824 335.695C80.1094 333.359 80.6758 331.304 81.6585 329.737L67.9382 305.896C63.9732 310.317 61.7983 317.078 61.544 325.014Z" fill="#4C4C4C"/>
</g>
<path fill-rule="evenodd" clip-rule="evenodd" d="M62.6007 276.705L98.303 260.141L98.3069 260.149C98.5329 260.04 98.7609 259.933 98.991 259.83C120.258 250.283 150.598 271.915 166.757 308.147C182.917 344.378 178.776 381.49 157.51 391.037C157.301 391.131 157.092 391.221 156.882 391.309L122.207 407.419L103.102 365.522C98.0724 358.861 93.5205 351.189 89.7434 342.72C86.2584 334.907 83.7176 327.052 82.0891 319.442L62.6007 276.705Z" fill="black"/>
<path d="M49.9096 353.365C59.4895 391.833 87.5143 417.922 112.505 411.635C137.495 405.348 149.988 369.067 140.408 330.599C130.828 292.131 102.241 263.965 77.2502 270.252C52.2597 276.538 40.3297 314.897 49.9096 353.365Z" fill="black"/>
<g filter="url(#filter7_i_3_244)">
<ellipse cx="29.6829" cy="51.896" rx="29.6829" ry="51.896" transform="matrix(-0.975616 0.21976 0.192989 0.981187 108.261 287.466)" fill="url(#paint3_linear_3_244)"/>
</g>
<g filter="url(#filter8_di_3_244)">
<path fill-rule="evenodd" clip-rule="evenodd" d="M68.5686 352.712C72.8197 370.104 83.2557 382.559 93.551 382.871L89.5433 363.237C85.5255 361.981 81.7086 357.197 79.6752 350.689L68.5686 352.712ZM67.4057 346.845C64.7291 329.338 69.3682 313.597 78.3799 308.546L82.3887 328.186C79.1586 331.307 77.555 337.71 78.421 344.838L67.4057 346.845ZM99.5565 340.986C97.5717 332.897 92.8657 326.986 88.0752 326.256L84.1202 306.88C95.1173 306.353 106.513 319.994 110.562 338.981L99.5565 340.986ZM100.453 346.902L111.552 344.88C113.669 362.163 108.645 377.362 99.3856 381.668L95.431 362.293C98.909 359.779 100.858 353.816 100.453 346.902Z" fill="#474747"/>
</g>
<g filter="url(#filter9_ii_3_244)">
<path d="M33.9941 319.9C34.6492 328.401 40.2644 334.667 46.2237 338.727C46.655 335.53 45.0013 334.095 48.2656 309.897C52.3459 279.651 75.8863 271.19 88.8839 274.035C103.657 277.268 116.885 289.481 124.83 309.896C131.331 326.601 135.208 335.932 140.061 374.711C145.213 381.041 380.104 500.517 379.346 497.786C377.365 490.644 377.316 456.86 384.424 440.387C398.387 408.029 420.182 411.115 431.897 412.905C444.314 414.803 473.169 429.956 488.152 460.449C511.911 508.807 506.004 541.653 511.911 558.933C513.849 564.603 608.342 600.404 641.948 608.838C725.976 633.89 844.659 548.535 867.045 532.004C889.431 515.473 891.253 466.865 887.963 412.898C888.014 381.356 881.265 365.005 876.439 359.971C853.167 335.704 797.697 296.231 762.709 277.575C676.456 183.488 671.048 171.819 641.503 157.455C581.612 128.337 337.757 29.2756 284.139 29.2765C252.457 29.277 140.918 65.3183 110.79 88.2928C86.6871 106.672 63.5998 147.62 51.5278 174.033C49.1724 191.493 44.488 247.189 39.5625 252.534C33.4057 259.214 33.1753 309.273 33.9941 319.9Z" fill="url(#paint4_linear_3_244)"/>
</g>
<mask id="mask0_3_244" style="mask-type:alpha" maskUnits="userSpaceOnUse" x="33" y="29" width="857" height="585">
<path d="M34.0033 319.899C34.6584 328.401 40.2735 334.667 46.2329 338.727C46.6641 335.53 45.0105 334.094 48.2748 309.897C52.3551 279.65 75.8955 271.19 88.8931 274.034C103.666 277.267 116.894 289.481 124.839 309.896C131.34 326.601 135.217 335.931 140.07 374.711C145.223 381.04 380.113 500.517 379.355 497.786C377.374 490.644 377.325 456.859 384.434 440.386C398.396 408.029 420.192 411.114 431.906 412.905C444.323 414.803 473.179 429.956 488.161 460.449C511.921 508.806 506.013 541.652 511.92 558.933C513.858 564.603 608.351 600.404 641.957 608.838C725.985 633.89 844.668 548.535 867.054 532.004C889.44 515.473 891.262 466.865 887.973 412.897C888.023 381.356 881.275 365.004 876.448 359.971C853.176 335.704 797.706 296.231 762.718 277.575C676.465 183.487 668.695 171.618 625.718 150.724C565.828 121.607 337.766 29.2753 284.148 29.2761C252.466 29.2766 140.927 65.3179 110.799 88.2925C86.6963 106.672 63.609 147.619 51.5369 174.033C49.1816 191.492 44.4971 247.189 39.5717 252.533C33.4148 259.214 33.1845 309.273 34.0033 319.899Z" fill="url(#paint5_linear_3_244)"/>
</mask>
<g mask="url(#mask0_3_244)">
<g filter="url(#filter10_dii_3_244)">
<path d="M702.326 474.121C679.317 475.775 636.802 480.525 594.919 454.721C592.281 453.096 588.023 456.811 589.379 459.596C596.79 474.814 606.047 494.659 614.56 499.104C629.01 506.648 670.465 520.839 710.192 513.687C710.327 513.662 710.459 513.645 710.596 513.65C714.818 513.796 725.594 522.209 735.16 525.898C750.185 530.074 815.963 494.352 832.544 484.978C867.549 465.187 879.509 450.682 881.373 446.84C884.284 440.84 882.324 428.44 882.903 424.571C883.397 421.271 886.59 414.086 887.52 412.041C887.687 411.673 887.774 411.288 887.771 410.884C887.743 407.841 887.483 393.895 885.06 382.834C885.017 382.635 884.995 382.431 884.994 382.227C884.907 362.075 876.362 348.351 876.365 358.875C876.365 373.445 872.592 390.953 862.011 399.319C861.843 399.452 861.759 399.534 861.589 399.665C856.145 403.842 733.524 471.878 702.326 474.121Z" fill="#141414"/>
</g>
<g filter="url(#filter11_dii_3_244)">
<path d="M702.335 474.122C679.325 475.775 636.808 480.521 594.922 454.715C592.284 453.09 588.026 456.805 589.382 459.59C596.795 474.808 606.053 494.653 614.567 499.098C629.019 506.643 670.476 520.836 710.204 513.687C710.339 513.663 710.471 513.646 710.608 513.651C714.83 513.797 725.607 522.21 735.174 525.9C750.2 530.076 815.978 494.36 832.558 484.988C867.563 465.201 879.523 450.697 881.386 446.856C884.298 440.856 882.336 428.456 882.915 424.587C883.409 421.288 886.602 414.103 887.532 412.058C887.699 411.69 887.786 411.305 887.782 410.901C887.754 407.859 887.493 393.913 885.07 382.853C885.026 382.653 885.004 382.449 885.003 382.245C884.915 362.094 876.368 348.37 876.372 358.894C876.373 373.463 872.601 390.97 862.02 399.335C861.852 399.468 861.768 399.55 861.599 399.681C856.154 403.857 733.533 471.882 702.335 474.122Z" fill="#141414"/>
</g>
<mask id="mask1_3_244" style="mask-type:alpha" maskUnits="userSpaceOnUse" x="589" y="355" width="299" height="172">
<path d="M702.335 474.122C679.325 475.775 636.808 480.521 594.922 454.715C592.284 453.09 588.026 456.805 589.382 459.59C596.795 474.808 606.053 494.653 614.567 499.098C629.019 506.643 670.476 520.836 710.204 513.687C710.339 513.663 710.471 513.646 710.608 513.651C714.83 513.797 725.607 522.21 735.174 525.9C750.2 530.076 815.978 494.36 832.558 484.988C867.563 465.201 881.053 449.584 882.917 445.743C885.828 439.743 882.336 427.761 882.915 423.891C883.402 420.635 886.519 414.087 887.494 412.094C887.684 411.705 887.786 411.287 887.782 410.854C887.751 407.717 887.481 393.857 885.07 382.853C885.026 382.653 885.004 382.449 885.003 382.245C884.915 362.094 876.368 348.37 876.372 358.894C876.373 373.463 872.601 390.97 862.02 399.335C861.852 399.468 861.768 399.55 861.599 399.681C856.154 403.857 733.533 471.882 702.335 474.122Z" fill="#211F1F"/>
</mask>
<g mask="url(#mask1_3_244)">
<g filter="url(#filter12_dii_3_244)">
<path d="M702.335 474.122C679.325 475.775 636.808 480.521 594.922 454.715C592.284 453.09 588.026 456.805 589.382 459.59C596.795 474.808 606.053 494.653 614.567 499.098C629.019 506.643 670.476 520.836 710.204 513.687C710.339 513.663 710.471 513.646 710.608 513.651C714.83 513.797 725.607 522.21 735.174 525.9C750.2 530.076 815.978 494.36 832.558 484.988C867.563 465.201 878.827 451.114 880.691 447.273C883.602 441.274 881.64 427.9 882.219 424.03C882.703 420.797 886.265 414.221 887.423 412.146C887.66 411.723 887.786 411.25 887.781 410.765C887.746 407.463 887.459 393.756 885.07 382.853C885.026 382.653 885.004 382.449 885.003 382.245C884.915 362.094 876.368 348.37 876.372 358.894C876.373 373.463 872.601 390.97 862.02 399.335C861.852 399.468 861.768 399.55 861.599 399.681C856.154 403.857 733.533 471.882 702.335 474.122Z" fill="#141414"/>
</g>
<g filter="url(#filter13_d_3_244)">
<path d="M857.502 392.187L874.887 366.691C875.039 366.917 875.204 367.171 875.379 367.45C876.21 368.782 877.255 370.693 878.108 373.01C879.815 377.646 880.727 383.822 877.731 390.246C876.862 392.108 875.201 394.125 873.315 395.296C871.45 396.455 869.602 396.673 867.998 395.508C867.066 394.83 865.801 394.286 864.509 393.849C863.198 393.405 861.775 393.042 860.472 392.757C859.361 392.514 858.326 392.325 857.502 392.187Z" stroke="white" stroke-opacity="0.5" stroke-width="2.3206"/>
</g>
<g filter="url(#filter14_d_3_244)">
<path d="M629.32 465.751L707.431 466.928C707.446 466.97 707.462 467.015 707.477 467.06C707.694 467.689 707.97 468.6 708.198 469.71C708.655 471.941 708.904 474.913 708.139 477.99C707.381 481.037 705.618 484.247 701.946 486.997C698.25 489.764 692.552 492.118 683.856 493.285C678.684 493.979 671.536 493.953 664.193 492.559C656.846 491.165 649.404 488.42 643.556 483.758C640.39 481.232 636.514 476.257 633.366 471.783C631.808 469.57 630.457 467.521 629.495 466.025C629.435 465.931 629.377 465.84 629.32 465.751ZM707.119 466.123C707.119 466.123 707.119 466.123 707.119 466.123L707.119 466.123Z" stroke="white" stroke-opacity="0.5" stroke-width="2.78472"/>
</g>
</g>
<g filter="url(#filter15_ddi_3_244)">
<path d="M525.967 376.349C505.077 367.701 480.495 293.62 454.57 248.481C452.791 245.383 454.121 241.403 457.438 240.074L646.575 164.285C648.008 163.711 649.592 163.769 650.87 164.635C657.052 168.828 678.601 186.093 734.19 251.696C751.234 271.811 753.745 274.31 762.274 283.656C763.542 285.045 758.998 291.651 754.56 295.311C736.303 310.363 576.155 397.126 525.967 376.349Z" fill="url(#paint6_linear_3_244)"/>
</g>
<g filter="url(#filter16_di_3_244)">
<path d="M424.487 249.936C392.615 232.633 318.219 197.407 295.879 186.883C292.587 185.332 288.734 187.255 288.036 190.827C284.213 210.404 274.132 264.595 279.127 267.358C394.887 331.421 433.909 350.465 439.958 353.367C450.122 358.244 474.421 373.685 470.115 361.136C463.388 341.529 443.776 260.408 424.487 249.936Z" fill="url(#paint7_linear_3_244)"/>
</g>
<g filter="url(#filter17_f_3_244)">
<path d="M598.593 445.299C552.525 425.574 526.191 399.848 498.086 376.456C580.313 398.124 752.49 445.777 749.923 449.3C746.714 453.705 734.621 459.183 694.001 463.175C654.01 467.106 603.868 447.558 598.593 445.299Z" fill="url(#paint8_linear_3_244)" fill-opacity="0.21"/>
</g>
<path d="M680.699 336.699L530.359 209.551C516.378 215.397 472.2 233.746 465.718 236.181C457.321 239.335 453.726 242.033 453.726 242.033C452.118 243.643 450.959 242.041 453.726 247.008C458.699 255.933 465.825 270.705 476.102 292.512C494.236 330.993 511.481 372.887 527.142 377.521C547.908 383.667 581.594 375.413 608.454 366.548C632.463 358.624 662.892 343.937 680.699 336.699Z" fill="#C4C4C4" fill-opacity="0.2"/>
<g filter="url(#filter18_di_3_244)">
<path d="M306.428 320.671C306.428 320.101 306.103 319.58 305.59 319.331L284.624 309.132C283.638 308.653 282.494 309.37 282.494 310.467L282.494 314.972C282.494 315.543 282.82 316.065 283.334 316.313L304.3 326.471C305.285 326.948 306.428 326.231 306.428 325.135L306.428 320.671Z" fill="#323232"/>
</g>
<g filter="url(#filter19_di_3_244)">
<path d="M230.118 283.369C230.118 282.798 229.792 282.278 229.28 282.029L208.313 271.83C207.328 271.351 206.183 272.068 206.183 273.165L206.183 277.67C206.183 278.241 206.51 278.762 207.023 279.011L227.99 289.168C228.975 289.646 230.118 288.928 230.118 287.832L230.118 283.369Z" fill="#323232"/>
</g>
<g filter="url(#filter20_di_3_244)">
<path d="M127.9 105.013L261.908 170.783C264.375 171.994 265.617 174.809 264.909 177.465C262.049 188.185 255.149 216.595 252.274 250.787C251.844 255.901 125.954 194.277 111.486 182.586C96.3912 170.389 108.056 129.128 120.877 107.029C122.293 104.589 125.368 103.77 127.9 105.013Z" fill="url(#paint9_linear_3_244)"/>
</g>
<g filter="url(#filter21_di_3_244)">
<path d="M98.3174 124.347C110.793 103.288 112.07 95.6595 104.104 94.4175C93.5397 100.187 62.4739 143.164 57.1929 162.756C56.1904 166.476 64.1105 165.215 72.7883 159.085C81.4662 152.955 82.7224 150.671 98.3174 124.347Z" fill="url(#paint10_linear_3_244)"/>
</g>
<g filter="url(#filter22_f_3_244)">
<path d="M89.6152 241.305L87.3171 240.136C88.0908 240.506 88.8568 240.896 89.6152 241.305L414.526 406.602C405.799 410.205 378.911 425.387 378.911 462.276L146.304 344.804C146.867 332.086 128.044 262.039 89.6152 241.305Z" fill="url(#paint11_linear_3_244)"/>
</g>
</g>
<defs>
<filter id="filter0_f_3_244" x="0.0257702" y="239.198" width="894.941" height="446.158" filterUnits="userSpaceOnUse" color-interpolation-filters="sRGB">
<feFlood flood-opacity="0" result="BackgroundImageFix"/>
<feBlend mode="normal" in="SourceGraphic" in2="BackgroundImageFix" result="shape"/>
<feGaussianBlur stdDeviation="8.67815" result="effect1_foregroundBlur_3_244"/>
</filter>
<filter id="filter1_i_3_244" x="390.073" y="434.583" width="96.8137" height="135.785" filterUnits="userSpaceOnUse" color-interpolation-filters="sRGB">
<feFlood flood-opacity="0" result="BackgroundImageFix"/>
<feBlend mode="normal" in="SourceGraphic" in2="BackgroundImageFix" result="shape"/>
<feColorMatrix in="SourceAlpha" type="matrix" values="0 0 0 0 0 0 0 0 0 0 0 0 0 0 0 0 0 0 127 0" result="hardAlpha"/>
<feMorphology radius="0.995302" operator="erode" in="SourceAlpha" result="effect1_innerShadow_3_244"/>
<feOffset/>
<feGaussianBlur stdDeviation="0.497651"/>
<feComposite in2="hardAlpha" operator="arithmetic" k2="-1" k3="1"/>
<feColorMatrix type="matrix" values="0 0 0 0 0 0 0 0 0 0 0 0 0 0 0 0 0 0 0.25 0"/>
<feBlend mode="normal" in2="shape" result="effect1_innerShadow_3_244"/>
</filter>
<filter id="filter2_di_3_244" x="395.241" y="445.852" width="84.0379" height="115.031" filterUnits="userSpaceOnUse" color-interpolation-filters="sRGB">
<feFlood flood-opacity="0" result="BackgroundImageFix"/>
<feColorMatrix in="SourceAlpha" type="matrix" values="0 0 0 0 0 0 0 0 0 0 0 0 0 0 0 0 0 0 127 0" result="hardAlpha"/>
<feOffset dy="0.398121"/>
<feGaussianBlur stdDeviation="0.298591"/>
<feColorMatrix type="matrix" values="0 0 0 0 1 0 0 0 0 1 0 0 0 0 1 0 0 0 0.41 0"/>
<feBlend mode="normal" in2="BackgroundImageFix" result="effect1_dropShadow_3_244"/>
<feBlend mode="normal" in="SourceGraphic" in2="effect1_dropShadow_3_244" result="shape"/>
<feColorMatrix in="SourceAlpha" type="matrix" values="0 0 0 0 0 0 0 0 0 0 0 0 0 0 0 0 0 0 127 0" result="hardAlpha"/>
<feOffset dx="-2.9859" dy="1.9906"/>
<feGaussianBlur stdDeviation="1.49295"/>
<feComposite in2="hardAlpha" operator="arithmetic" k2="-1" k3="1"/>
<feColorMatrix type="matrix" values="0 0 0 0 0 0 0 0 0 0 0 0 0 0 0 0 0 0 0.25 0"/>
<feBlend mode="normal" in2="shape" result="effect2_innerShadow_3_244"/>
</filter>
<filter id="filter3_i_3_244" x="395.747" y="435.357" width="86.4161" height="134.227" filterUnits="userSpaceOnUse" color-interpolation-filters="sRGB">
<feFlood flood-opacity="0" result="BackgroundImageFix"/>
<feBlend mode="normal" in="SourceGraphic" in2="BackgroundImageFix" result="shape"/>
<feColorMatrix in="SourceAlpha" type="matrix" values="0 0 0 0 0 0 0 0 0 0 0 0 0 0 0 0 0 0 127 0" result="hardAlpha"/>
<feMorphology radius="0.730773" operator="erode" in="SourceAlpha" result="effect1_innerShadow_3_244"/>
<feOffset/>
<feGaussianBlur stdDeviation="0.365387"/>
<feComposite in2="hardAlpha" operator="arithmetic" k2="-1" k3="1"/>
<feColorMatrix type="matrix" values="0 0 0 0 0 0 0 0 0 0 0 0 0 0 0 0 0 0 0.25 0"/>
<feBlend mode="normal" in2="shape" result="effect1_innerShadow_3_244"/>
</filter>
<filter id="filter4_di_3_244" x="403.997" y="452.544" width="67.5542" height="101.553" filterUnits="userSpaceOnUse" color-interpolation-filters="sRGB">
<feFlood flood-opacity="0" result="BackgroundImageFix"/>
<feColorMatrix in="SourceAlpha" type="matrix" values="0 0 0 0 0 0 0 0 0 0 0 0 0 0 0 0 0 0 127 0" result="hardAlpha"/>
<feOffset dy="0.398121"/>
<feGaussianBlur stdDeviation="0.298591"/>
<feColorMatrix type="matrix" values="0 0 0 0 1 0 0 0 0 1 0 0 0 0 1 0 0 0 0.41 0"/>
<feBlend mode="normal" in2="BackgroundImageFix" result="effect1_dropShadow_3_244"/>
<feBlend mode="normal" in="SourceGraphic" in2="effect1_dropShadow_3_244" result="shape"/>
<feColorMatrix in="SourceAlpha" type="matrix" values="0 0 0 0 0 0 0 0 0 0 0 0 0 0 0 0 0 0 127 0" result="hardAlpha"/>
<feOffset dx="-2.9859" dy="1.9906"/>
<feGaussianBlur stdDeviation="1.49295"/>
<feComposite in2="hardAlpha" operator="arithmetic" k2="-1" k3="1"/>
<feColorMatrix type="matrix" values="0 0 0 0 0 0 0 0 0 0 0 0 0 0 0 0 0 0 0.25 0"/>
<feBlend mode="normal" in2="shape" result="effect2_innerShadow_3_244"/>
</filter>
<filter id="filter5_i_3_244" x="55.3986" y="291.838" width="72.527" height="101.722" filterUnits="userSpaceOnUse" color-interpolation-filters="sRGB">
<feFlood flood-opacity="0" result="BackgroundImageFix"/>
<feBlend mode="normal" in="SourceGraphic" in2="BackgroundImageFix" result="shape"/>
<feColorMatrix in="SourceAlpha" type="matrix" values="0 0 0 0 0 0 0 0 0 0 0 0 0 0 0 0 0 0 127 0" result="hardAlpha"/>
<feMorphology radius="0.995302" operator="erode" in="SourceAlpha" result="effect1_innerShadow_3_244"/>
<feOffset/>
<feGaussianBlur stdDeviation="0.497651"/>
<feComposite in2="hardAlpha" operator="arithmetic" k2="-1" k3="1"/>
<feColorMatrix type="matrix" values="0 0 0 0 0 0 0 0 0 0 0 0 0 0 0 0 0 0 0.25 0"/>
<feBlend mode="normal" in2="shape" result="effect1_innerShadow_3_244"/>
</filter>
<filter id="filter6_di_3_244" x="58.5377" y="300.232" width="63.8503" height="86.7234" filterUnits="userSpaceOnUse" color-interpolation-filters="sRGB">
<feFlood flood-opacity="0" result="BackgroundImageFix"/>
<feColorMatrix in="SourceAlpha" type="matrix" values="0 0 0 0 0 0 0 0 0 0 0 0 0 0 0 0 0 0 127 0" result="hardAlpha"/>
<feOffset dy="0.398121"/>
<feGaussianBlur stdDeviation="0.298591"/>
<feColorMatrix type="matrix" values="0 0 0 0 1 0 0 0 0 1 0 0 0 0 1 0 0 0 0.41 0"/>
<feBlend mode="normal" in2="BackgroundImageFix" result="effect1_dropShadow_3_244"/>
<feBlend mode="normal" in="SourceGraphic" in2="effect1_dropShadow_3_244" result="shape"/>
<feColorMatrix in="SourceAlpha" type="matrix" values="0 0 0 0 0 0 0 0 0 0 0 0 0 0 0 0 0 0 127 0" result="hardAlpha"/>
<feOffset dx="-2.9859" dy="1.9906"/>
<feGaussianBlur stdDeviation="1.49295"/>
<feComposite in2="hardAlpha" operator="arithmetic" k2="-1" k3="1"/>
<feColorMatrix type="matrix" values="0 0 0 0 0 0 0 0 0 0 0 0 0 0 0 0 0 0 0.25 0"/>
<feBlend mode="normal" in2="shape" result="effect2_innerShadow_3_244"/>
</filter>
<filter id="filter7_i_3_244" x="58.6672" y="293.568" width="61.3009" height="102.683" filterUnits="userSpaceOnUse" color-interpolation-filters="sRGB">
<feFlood flood-opacity="0" result="BackgroundImageFix"/>
<feBlend mode="normal" in="SourceGraphic" in2="BackgroundImageFix" result="shape"/>
<feColorMatrix in="SourceAlpha" type="matrix" values="0 0 0 0 0 0 0 0 0 0 0 0 0 0 0 0 0 0 127 0" result="hardAlpha"/>
<feMorphology radius="0.730773" operator="erode" in="SourceAlpha" result="effect1_innerShadow_3_244"/>
<feOffset/>
<feGaussianBlur stdDeviation="0.365387"/>
<feComposite in2="hardAlpha" operator="arithmetic" k2="-1" k3="1"/>
<feColorMatrix type="matrix" values="0 0 0 0 0 0 0 0 0 0 0 0 0 0 0 0 0 0 0.25 0"/>
<feBlend mode="normal" in2="shape" result="effect1_innerShadow_3_244"/>
</filter>
<filter id="filter8_di_3_244" x="63.6662" y="306.667" width="48.9636" height="78.1955" filterUnits="userSpaceOnUse" color-interpolation-filters="sRGB">
<feFlood flood-opacity="0" result="BackgroundImageFix"/>
<feColorMatrix in="SourceAlpha" type="matrix" values="0 0 0 0 0 0 0 0 0 0 0 0 0 0 0 0 0 0 127 0" result="hardAlpha"/>
<feOffset dy="0.398121"/>
<feGaussianBlur stdDeviation="0.298591"/>
<feColorMatrix type="matrix" values="0 0 0 0 1 0 0 0 0 1 0 0 0 0 1 0 0 0 0.41 0"/>
<feBlend mode="normal" in2="BackgroundImageFix" result="effect1_dropShadow_3_244"/>
<feBlend mode="normal" in="SourceGraphic" in2="effect1_dropShadow_3_244" result="shape"/>
<feColorMatrix in="SourceAlpha" type="matrix" values="0 0 0 0 0 0 0 0 0 0 0 0 0 0 0 0 0 0 127 0" result="hardAlpha"/>
<feOffset dx="-2.9859" dy="1.9906"/>
<feGaussianBlur stdDeviation="1.49295"/>
<feComposite in2="hardAlpha" operator="arithmetic" k2="-1" k3="1"/>
<feColorMatrix type="matrix" values="0 0 0 0 0 0 0 0 0 0 0 0 0 0 0 0 0 0 0.25 0"/>
<feBlend mode="normal" in2="shape" result="effect2_innerShadow_3_244"/>
</filter>
<filter id="filter9_ii_3_244" x="33.653" y="21.8456" width="861.155" height="591.563" filterUnits="userSpaceOnUse" color-interpolation-filters="sRGB">
<feFlood flood-opacity="0" result="BackgroundImageFix"/>
<feBlend mode="normal" in="SourceGraphic" in2="BackgroundImageFix" result="shape"/>
<feColorMatrix in="SourceAlpha" type="matrix" values="0 0 0 0 0 0 0 0 0 0 0 0 0 0 0 0 0 0 127 0" result="hardAlpha"/>
<feOffset dx="5.57307" dy="-7.43076"/>
<feGaussianBlur stdDeviation="22.2923"/>
<feComposite in2="hardAlpha" operator="arithmetic" k2="-1" k3="1"/>
<feColorMatrix type="matrix" values="0 0 0 0 0 0 0 0 0 0 0 0 0 0 0 0 0 0 0.07 0"/>
<feBlend mode="normal" in2="shape" result="effect1_innerShadow_3_244"/>
<feColorMatrix in="SourceAlpha" type="matrix" values="0 0 0 0 0 0 0 0 0 0 0 0 0 0 0 0 0 0 127 0" result="hardAlpha"/>
<feOffset dy="-0.928845"/>
<feGaussianBlur stdDeviation="1.85769"/>
<feComposite in2="hardAlpha" operator="arithmetic" k2="-1" k3="1"/>
<feColorMatrix type="matrix" values="0 0 0 0 0 0 0 0 0 0 0 0 0 0 0 0 0 0 0.25 0"/>
<feBlend mode="normal" in2="effect1_innerShadow_3_244" result="effect2_innerShadow_3_244"/>
</filter>
<filter id="filter10_dii_3_244" x="586.144" y="352.96" width="304.602" height="176.945" filterUnits="userSpaceOnUse" color-interpolation-filters="sRGB">
<feFlood flood-opacity="0" result="BackgroundImageFix"/>
<feColorMatrix in="SourceAlpha" type="matrix" values="0 0 0 0 0 0 0 0 0 0 0 0 0 0 0 0 0 0 127 0" result="hardAlpha"/>
<feOffset dy="0.694325"/>
<feGaussianBlur stdDeviation="1.48756"/>
<feColorMatrix type="matrix" values="0 0 0 0 0 0 0 0 0 0 0 0 0 0 0 0 0 0 0.63 0"/>
<feBlend mode="normal" in2="BackgroundImageFix" result="effect1_dropShadow_3_244"/>
<feBlend mode="normal" in="SourceGraphic" in2="effect1_dropShadow_3_244" result="shape"/>
<feColorMatrix in="SourceAlpha" type="matrix" values="0 0 0 0 0 0 0 0 0 0 0 0 0 0 0 0 0 0 127 0" result="hardAlpha"/>
<feOffset dy="0.694325"/>
<feGaussianBlur stdDeviation="0.694325"/>
<feComposite in2="hardAlpha" operator="arithmetic" k2="-1" k3="1"/>
<feColorMatrix type="matrix" values="0 0 0 0 0 0 0 0 0 0 0 0 0 0 0 0 0 0 0.25 0"/>
<feBlend mode="normal" in2="shape" result="effect2_innerShadow_3_244"/>
<feColorMatrix in="SourceAlpha" type="matrix" values="0 0 0 0 0 0 0 0 0 0 0 0 0 0 0 0 0 0 127 0" result="hardAlpha"/>
<feOffset dy="-0.694325"/>
<feGaussianBlur stdDeviation="0.694325"/>
<feComposite in2="hardAlpha" operator="arithmetic" k2="-1" k3="1"/>
<feColorMatrix type="matrix" values="0 0 0 0 0 0 0 0 0 0 0 0 0 0 0 0 0 0 0.25 0"/>
<feBlend mode="normal" in2="effect2_innerShadow_3_244" result="effect3_innerShadow_3_244"/>
</filter>
<filter id="filter11_dii_3_244" x="586.147" y="352.979" width="304.61" height="176.929" filterUnits="userSpaceOnUse" color-interpolation-filters="sRGB">
<feFlood flood-opacity="0" result="BackgroundImageFix"/>
<feColorMatrix in="SourceAlpha" type="matrix" values="0 0 0 0 0 0 0 0 0 0 0 0 0 0 0 0 0 0 127 0" result="hardAlpha"/>
<feOffset dy="0.694325"/>
<feGaussianBlur stdDeviation="1.48756"/>
<feColorMatrix type="matrix" values="0 0 0 0 0 0 0 0 0 0 0 0 0 0 0 0 0 0 0.63 0"/>
<feBlend mode="normal" in2="BackgroundImageFix" result="effect1_dropShadow_3_244"/>
<feBlend mode="normal" in="SourceGraphic" in2="effect1_dropShadow_3_244" result="shape"/>
<feColorMatrix in="SourceAlpha" type="matrix" values="0 0 0 0 0 0 0 0 0 0 0 0 0 0 0 0 0 0 127 0" result="hardAlpha"/>
<feOffset dy="0.694325"/>
<feGaussianBlur stdDeviation="0.694325"/>
<feComposite in2="hardAlpha" operator="arithmetic" k2="-1" k3="1"/>
<feColorMatrix type="matrix" values="0 0 0 0 0 0 0 0 0 0 0 0 0 0 0 0 0 0 0.25 0"/>
<feBlend mode="normal" in2="shape" result="effect2_innerShadow_3_244"/>
<feColorMatrix in="SourceAlpha" type="matrix" values="0 0 0 0 0 0 0 0 0 0 0 0 0 0 0 0 0 0 127 0" result="hardAlpha"/>
<feOffset dy="-0.694325"/>
<feGaussianBlur stdDeviation="0.694325"/>
<feComposite in2="hardAlpha" operator="arithmetic" k2="-1" k3="1"/>
<feColorMatrix type="matrix" values="0 0 0 0 0 0 0 0 0 0 0 0 0 0 0 0 0 0 0.25 0"/>
<feBlend mode="normal" in2="effect2_innerShadow_3_244" result="effect3_innerShadow_3_244"/>
</filter>
<filter id="filter12_dii_3_244" x="586.147" y="352.979" width="304.609" height="176.929" filterUnits="userSpaceOnUse" color-interpolation-filters="sRGB">
<feFlood flood-opacity="0" result="BackgroundImageFix"/>
<feColorMatrix in="SourceAlpha" type="matrix" values="0 0 0 0 0 0 0 0 0 0 0 0 0 0 0 0 0 0 127 0" result="hardAlpha"/>
<feOffset dy="0.694325"/>
<feGaussianBlur stdDeviation="1.48756"/>
<feColorMatrix type="matrix" values="0 0 0 0 0 0 0 0 0 0 0 0 0 0 0 0 0 0 0.63 0"/>
<feBlend mode="normal" in2="BackgroundImageFix" result="effect1_dropShadow_3_244"/>
<feBlend mode="normal" in="SourceGraphic" in2="effect1_dropShadow_3_244" result="shape"/>
<feColorMatrix in="SourceAlpha" type="matrix" values="0 0 0 0 0 0 0 0 0 0 0 0 0 0 0 0 0 0 127 0" result="hardAlpha"/>
<feOffset dy="0.694325"/>
<feGaussianBlur stdDeviation="0.694325"/>
<feComposite in2="hardAlpha" operator="arithmetic" k2="-1" k3="1"/>
<feColorMatrix type="matrix" values="0 0 0 0 0 0 0 0 0 0 0 0 0 0 0 0 0 0 0.25 0"/>
<feBlend mode="normal" in2="shape" result="effect2_innerShadow_3_244"/>
<feColorMatrix in="SourceAlpha" type="matrix" values="0 0 0 0 0 0 0 0 0 0 0 0 0 0 0 0 0 0 127 0" result="hardAlpha"/>
<feOffset dy="-0.694325"/>
<feGaussianBlur stdDeviation="0.694325"/>
<feComposite in2="hardAlpha" operator="arithmetic" k2="-1" k3="1"/>
<feColorMatrix type="matrix" values="0 0 0 0 0 0 0 0 0 0 0 0 0 0 0 0 0 0 0.25 0"/>
<feBlend mode="normal" in2="effect2_innerShadow_3_244" result="effect3_innerShadow_3_244"/>
</filter>
<filter id="filter13_d_3_244" x="855.503" y="364.674" width="27.7119" height="35.1343" filterUnits="userSpaceOnUse" color-interpolation-filters="sRGB">
<feFlood flood-opacity="0" result="BackgroundImageFix"/>
<feColorMatrix in="SourceAlpha" type="matrix" values="0 0 0 0 0 0 0 0 0 0 0 0 0 0 0 0 0 0 127 0" result="hardAlpha"/>
<feOffset dx="1.39236" dy="1.39236"/>
<feGaussianBlur stdDeviation="0.486926"/>
<feColorMatrix type="matrix" values="0 0 0 0 1 0 0 0 0 1 0 0 0 0 1 0 0 0 0.24 0"/>
<feBlend mode="normal" in2="BackgroundImageFix" result="effect1_dropShadow_3_244"/>
<feBlend mode="normal" in="SourceGraphic" in2="effect1_dropShadow_3_244" result="shape"/>
</filter>
<filter id="filter14_d_3_244" x="625.386" y="464.32" width="87.8846" height="35.4449" filterUnits="userSpaceOnUse" color-interpolation-filters="sRGB">
<feFlood flood-opacity="0" result="BackgroundImageFix"/>
<feColorMatrix in="SourceAlpha" type="matrix" values="0 0 0 0 0 0 0 0 0 0 0 0 0 0 0 0 0 0 127 0" result="hardAlpha"/>
<feOffset dx="0.928239" dy="2.3206"/>
<feGaussianBlur stdDeviation="1.1603"/>
<feColorMatrix type="matrix" values="0 0 0 0 1 0 0 0 0 1 0 0 0 0 1 0 0 0 0.24 0"/>
<feBlend mode="normal" in2="BackgroundImageFix" result="effect1_dropShadow_3_244"/>
<feBlend mode="normal" in="SourceGraphic" in2="effect1_dropShadow_3_244" result="shape"/>
</filter>
<filter id="filter15_ddi_3_244" x="450.808" y="161.681" width="313.168" height="220.092" filterUnits="userSpaceOnUse" color-interpolation-filters="sRGB">
<feFlood flood-opacity="0" result="BackgroundImageFix"/>
<feColorMatrix in="SourceAlpha" type="matrix" values="0 0 0 0 0 0 0 0 0 0 0 0 0 0 0 0 0 0 127 0" result="hardAlpha"/>
<feOffset dx="-1.48533" dy="0.742667"/>
<feGaussianBlur stdDeviation="0.742667"/>
<feColorMatrix type="matrix" values="0 0 0 0 1 0 0 0 0 1 0 0 0 0 1 0 0 0 0.28 0"/>
<feBlend mode="normal" in2="BackgroundImageFix" result="effect1_dropShadow_3_244"/>
<feColorMatrix in="SourceAlpha" type="matrix" values="0 0 0 0 0 0 0 0 0 0 0 0 0 0 0 0 0 0 127 0" result="hardAlpha"/>
<feOffset dy="-0.742667"/>
<feGaussianBlur stdDeviation="0.742667"/>
<feColorMatrix type="matrix" values="0 0 0 0 1 0 0 0 0 1 0 0 0 0 1 0 0 0 0.56 0"/>
<feBlend mode="normal" in2="effect1_dropShadow_3_244" result="effect2_dropShadow_3_244"/>
<feBlend mode="normal" in="SourceGraphic" in2="effect2_dropShadow_3_244" result="shape"/>
<feColorMatrix in="SourceAlpha" type="matrix" values="0 0 0 0 0 0 0 0 0 0 0 0 0 0 0 0 0 0 127 0" result="hardAlpha"/>
<feOffset dx="-0.742667" dy="2.228"/>
<feGaussianBlur stdDeviation="1.114"/>
<feComposite in2="hardAlpha" operator="arithmetic" k2="-1" k3="1"/>
<feColorMatrix type="matrix" values="0 0 0 0 0 0 0 0 0 0 0 0 0 0 0 0 0 0 0.75 0"/>
<feBlend mode="normal" in2="shape" result="effect3_innerShadow_3_244"/>
</filter>
<filter id="filter16_di_3_244" x="272.646" y="186.341" width="198.744" height="183.305" filterUnits="userSpaceOnUse" color-interpolation-filters="sRGB">
<feFlood flood-opacity="0" result="BackgroundImageFix"/>
<feColorMatrix in="SourceAlpha" type="matrix" values="0 0 0 0 0 0 0 0 0 0 0 0 0 0 0 0 0 0 127 0" result="hardAlpha"/>
<feOffset dy="0.768015"/>
<feGaussianBlur stdDeviation="0.384007"/>
<feColorMatrix type="matrix" values="0 0 0 0 0.925374 0 0 0 0 0.925374 0 0 0 0 0.925374 0 0 0 0.37 0"/>
<feBlend mode="normal" in2="BackgroundImageFix" result="effect1_dropShadow_3_244"/>
<feBlend mode="normal" in="SourceGraphic" in2="effect1_dropShadow_3_244" result="shape"/>
<feColorMatrix in="SourceAlpha" type="matrix" values="0 0 0 0 0 0 0 0 0 0 0 0 0 0 0 0 0 0 127 0" result="hardAlpha"/>
<feOffset dx="-5.12036" dy="3.70637"/>
<feGaussianBlur stdDeviation="2.56018"/>
<feComposite in2="hardAlpha" operator="arithmetic" k2="-1" k3="1"/>
<feColorMatrix type="matrix" values="0 0 0 0 0 0 0 0 0 0 0 0 0 0 0 0 0 0 0.63 0"/>
<feBlend mode="normal" in2="shape" result="effect2_innerShadow_3_244"/>
</filter>
<filter id="filter17_f_3_244" x="477.291" y="355.662" width="293.455" height="128.829" filterUnits="userSpaceOnUse" color-interpolation-filters="sRGB">
<feFlood flood-opacity="0" result="BackgroundImageFix"/>
<feBlend mode="normal" in="SourceGraphic" in2="BackgroundImageFix" result="shape"/>
<feGaussianBlur stdDeviation="10.3973" result="effect1_foregroundBlur_3_244"/>
</filter>
<filter id="filter18_di_3_244" x="282.125" y="308.244" width="24.671" height="20.2186" filterUnits="userSpaceOnUse" color-interpolation-filters="sRGB">
<feFlood flood-opacity="0" result="BackgroundImageFix"/>
<feColorMatrix in="SourceAlpha" type="matrix" values="0 0 0 0 0 0 0 0 0 0 0 0 0 0 0 0 0 0 127 0" result="hardAlpha"/>
<feOffset dy="-0.368347"/>
<feGaussianBlur stdDeviation="0.184173"/>
<feColorMatrix type="matrix" values="0 0 0 0 0.78755 0 0 0 0 0.78755 0 0 0 0 0.78755 0 0 0 0.19 0"/>
<feBlend mode="normal" in2="BackgroundImageFix" result="effect1_dropShadow_3_244"/>
<feBlend mode="normal" in="SourceGraphic" in2="effect1_dropShadow_3_244" result="shape"/>
<feColorMatrix in="SourceAlpha" type="matrix" values="0 0 0 0 0 0 0 0 0 0 0 0 0 0 0 0 0 0 127 0" result="hardAlpha"/>
<feOffset dy="1.84173"/>
<feGaussianBlur stdDeviation="0.920867"/>
<feComposite in2="hardAlpha" operator="arithmetic" k2="-1" k3="1"/>
<feColorMatrix type="matrix" values="0 0 0 0 0 0 0 0 0 0 0 0 0 0 0 0 0 0 0.74 0"/>
<feBlend mode="normal" in2="shape" result="effect2_innerShadow_3_244"/>
</filter>
<filter id="filter19_di_3_244" x="205.815" y="270.942" width="24.671" height="20.2186" filterUnits="userSpaceOnUse" color-interpolation-filters="sRGB">
<feFlood flood-opacity="0" result="BackgroundImageFix"/>
<feColorMatrix in="SourceAlpha" type="matrix" values="0 0 0 0 0 0 0 0 0 0 0 0 0 0 0 0 0 0 127 0" result="hardAlpha"/>
<feOffset dy="-0.368347"/>
<feGaussianBlur stdDeviation="0.184173"/>
<feColorMatrix type="matrix" values="0 0 0 0 0.78755 0 0 0 0 0.78755 0 0 0 0 0.78755 0 0 0 0.19 0"/>
<feBlend mode="normal" in2="BackgroundImageFix" result="effect1_dropShadow_3_244"/>
<feBlend mode="normal" in="SourceGraphic" in2="effect1_dropShadow_3_244" result="shape"/>
<feColorMatrix in="SourceAlpha" type="matrix" values="0 0 0 0 0 0 0 0 0 0 0 0 0 0 0 0 0 0 127 0" result="hardAlpha"/>
<feOffset dy="1.84173"/>
<feGaussianBlur stdDeviation="0.920867"/>
<feComposite in2="hardAlpha" operator="arithmetic" k2="-1" k3="1"/>
<feColorMatrix type="matrix" values="0 0 0 0 0 0 0 0 0 0 0 0 0 0 0 0 0 0 0.74 0"/>
<feBlend mode="normal" in2="shape" result="effect2_innerShadow_3_244"/>
</filter>
<filter id="filter20_di_3_244" x="99.2421" y="104.438" width="166.632" height="150.355" filterUnits="userSpaceOnUse" color-interpolation-filters="sRGB">
<feFlood flood-opacity="0" result="BackgroundImageFix"/>
<feColorMatrix in="SourceAlpha" type="matrix" values="0 0 0 0 0 0 0 0 0 0 0 0 0 0 0 0 0 0 127 0" result="hardAlpha"/>
<feOffset dy="0.768015"/>
<feGaussianBlur stdDeviation="0.384007"/>
<feColorMatrix type="matrix" values="0 0 0 0 0.925374 0 0 0 0 0.925374 0 0 0 0 0.925374 0 0 0 0.37 0"/>
<feBlend mode="normal" in2="BackgroundImageFix" result="effect1_dropShadow_3_244"/>
<feBlend mode="normal" in="SourceGraphic" in2="effect1_dropShadow_3_244" result="shape"/>
<feColorMatrix in="SourceAlpha" type="matrix" values="0 0 0 0 0 0 0 0 0 0 0 0 0 0 0 0 0 0 127 0" result="hardAlpha"/>
<feOffset dx="-5.12036" dy="3.70637"/>
<feGaussianBlur stdDeviation="2.56018"/>
<feComposite in2="hardAlpha" operator="arithmetic" k2="-1" k3="1"/>
<feColorMatrix type="matrix" values="0 0 0 0 0 0 0 0 0 0 0 0 0 0 0 0 0 0 0.63 0"/>
<feBlend mode="normal" in2="shape" result="effect2_innerShadow_3_244"/>
</filter>
<filter id="filter21_di_3_244" x="53.3639" y="94.4175" width="56.7103" height="74.1713" filterUnits="userSpaceOnUse" color-interpolation-filters="sRGB">
<feFlood flood-opacity="0" result="BackgroundImageFix"/>
<feColorMatrix in="SourceAlpha" type="matrix" values="0 0 0 0 0 0 0 0 0 0 0 0 0 0 0 0 0 0 127 0" result="hardAlpha"/>
<feOffset dy="0.967704"/>
<feGaussianBlur stdDeviation="0.483852"/>
<feColorMatrix type="matrix" values="0 0 0 0 0.925374 0 0 0 0 0.925374 0 0 0 0 0.925374 0 0 0 0.37 0"/>
<feBlend mode="normal" in2="BackgroundImageFix" result="effect1_dropShadow_3_244"/>
<feBlend mode="normal" in="SourceGraphic" in2="effect1_dropShadow_3_244" result="shape"/>
<feColorMatrix in="SourceAlpha" type="matrix" values="0 0 0 0 0 0 0 0 0 0 0 0 0 0 0 0 0 0 127 0" result="hardAlpha"/>
<feOffset dx="-3.74306" dy="4.67883"/>
<feGaussianBlur stdDeviation="1.87153"/>
<feComposite in2="hardAlpha" operator="arithmetic" k2="-1" k3="1"/>
<feColorMatrix type="matrix" values="0 0 0 0 0 0 0 0 0 0 0 0 0 0 0 0 0 0 0.8 0"/>
<feBlend mode="normal" in2="shape" result="effect2_innerShadow_3_244"/>
</filter>
<filter id="filter22_f_3_244" x="84.2296" y="237.048" width="333.384" height="228.316" filterUnits="userSpaceOnUse" color-interpolation-filters="sRGB">
<feFlood flood-opacity="0" result="BackgroundImageFix"/>
<feBlend mode="normal" in="SourceGraphic" in2="BackgroundImageFix" result="shape"/>
<feGaussianBlur stdDeviation="1.54375" result="effect1_foregroundBlur_3_244"/>
</filter>
<linearGradient id="paint0_linear_3_244" x1="99.7219" y1="109.58" x2="104.69" y2="35.7066" gradientUnits="userSpaceOnUse">
<stop stop-color="#3F3F3F"/>
<stop offset="1" stop-color="#5C5C5C"/>
</linearGradient>
<linearGradient id="paint1_linear_3_244" x1="93.2421" y1="96.1785" x2="65.257" y2="-32.2098" gradientUnits="userSpaceOnUse">
<stop stop-color="#3F3F3F"/>
<stop offset="1" stop-color="#777676"/>
</linearGradient>
<linearGradient id="paint2_linear_3_244" x1="74.7055" y1="82.0908" x2="78.4271" y2="26.7492" gradientUnits="userSpaceOnUse">
<stop stop-color="#3F3F3F"/>
<stop offset="1" stop-color="#5C5C5C"/>
</linearGradient>
<linearGradient id="paint3_linear_3_244" x1="69.849" y1="72.0533" x2="48.8825" y2="-24.1298" gradientUnits="userSpaceOnUse">
<stop stop-color="#3F3F3F"/>
<stop offset="1" stop-color="#777676"/>
</linearGradient>
<linearGradient id="paint4_linear_3_244" x1="346.14" y1="479.837" x2="639.967" y2="51.4646" gradientUnits="userSpaceOnUse">
<stop stop-color="#282828"/>
<stop offset="0.664655" stop-color="#4A4949"/>
<stop offset="1" stop-color="#737373"/>
</linearGradient>
<linearGradient id="paint5_linear_3_244" x1="321.831" y1="449.479" x2="627.447" y2="41.0892" gradientUnits="userSpaceOnUse">
<stop stop-color="#555555"/>
<stop offset="0.628054" stop-color="#797979"/>
<stop offset="1" stop-color="#B8B8B8"/>
</linearGradient>
<linearGradient id="paint6_linear_3_244" x1="727.099" y1="108.876" x2="517.985" y2="284.972" gradientUnits="userSpaceOnUse">
<stop stop-color="#E8EAE9"/>
<stop offset="0.498386" stop-color="#707072"/>
<stop offset="1" stop-color="#2F3032"/>
</linearGradient>
<linearGradient id="paint7_linear_3_244" x1="151.702" y1="729.218" x2="176.039" y2="210.481" gradientUnits="userSpaceOnUse">
<stop stop-color="#E8EAE9"/>
<stop offset="0.498386" stop-color="#707072"/>
<stop offset="1" stop-color="#2F3032"/>
</linearGradient>
<linearGradient id="paint8_linear_3_244" x1="617.554" y1="471.144" x2="635.456" y2="413.076" gradientUnits="userSpaceOnUse">
<stop stop-color="#ECEAEA"/>
<stop offset="1" stop-color="white" stop-opacity="0"/>
</linearGradient>
<linearGradient id="paint9_linear_3_244" x1="8.27512" y1="527.969" x2="27.676" y2="123.643" gradientUnits="userSpaceOnUse">
<stop stop-color="#E8EAE9"/>
<stop offset="0.498386" stop-color="#707072"/>
<stop offset="1" stop-color="#2F3032"/>
</linearGradient>
<linearGradient id="paint10_linear_3_244" x1="108.859" y1="264.965" x2="28.8364" y2="204.464" gradientUnits="userSpaceOnUse">
<stop stop-color="#E8EAE9"/>
<stop offset="0.498386" stop-color="#707072"/>
<stop offset="1" stop-color="#2F3032"/>
</linearGradient>
<linearGradient id="paint11_linear_3_244" x1="316.889" y1="293.487" x2="238.595" y2="469.326" gradientUnits="userSpaceOnUse">
<stop stop-color="#343434" stop-opacity="0.66"/>
<stop offset="1" stop-color="#1A1A1A"/>
</linearGradient>
</defs>
</svg>
